<svg width="126" height="68" viewBox="0 0 126 68" fill="none" xmlns="http://www.w3.org/2000/svg">
<path d="M28.0469 31.4844C27.6823 32.1094 27.3958 32.6172 27.1875 33.0078C27.0052 33.3724 26.8099 33.6849 26.6016 33.9453C26.4193 34.1797 26.1979 34.401 25.9375 34.6094C25.7031 34.7917 25.3646 35.026 24.9219 35.3125C24.6354 35.5729 24.349 35.7943 24.0625 35.9766C23.8281 36.1589 23.5938 36.3151 23.3594 36.4453C23.151 36.5755 22.9818 36.6406 22.8516 36.6406C22.7995 36.6406 22.7474 36.6276 22.6953 36.6016C22.6432 36.6016 22.5911 36.6016 22.5391 36.6016C22.3828 36.6016 22.2266 36.6016 22.0703 36.6016C21.9401 36.6276 21.8229 36.5365 21.7188 36.3281C21.6406 36.4062 21.5755 36.4974 21.5234 36.6016C21.4714 36.7057 21.4193 36.7969 21.3672 36.875C21.3151 36.9792 21.237 37.0573 21.1328 37.1094C21.0547 37.1615 20.9375 37.1615 20.7812 37.1094L20.5859 36.875L20 37.3828C19.2708 37.0182 18.5677 36.7057 17.8906 36.4453C17.2396 36.2109 16.6536 35.9245 16.1328 35.5859C15.612 35.2474 15.1693 34.8177 14.8047 34.2969C14.4401 33.75 14.1797 33.0078 14.0234 32.0703C13.8932 31.9141 13.75 31.7839 13.5938 31.6797C13.4375 31.5495 13.2552 31.5104 13.0469 31.5625C12.7865 32.0052 12.474 32.3828 12.1094 32.6953C11.7448 33.0078 11.3802 33.3464 11.0156 33.7109C10.8854 33.8411 10.7812 33.9844 10.7031 34.1406C10.625 34.2969 10.5208 34.4401 10.3906 34.5703C10.1823 34.8047 9.9349 34.974 9.64844 35.0781C9.36198 35.1562 9.07552 35.2344 8.78906 35.3125C8.5026 35.3906 8.22917 35.5208 7.96875 35.7031C7.73438 35.8854 7.5651 36.1979 7.46094 36.6406C7.14844 36.4583 6.83594 36.4062 6.52344 36.4844C6.28906 36.5365 6.04167 36.5885 5.78125 36.6406C5.52083 36.7188 5.26042 36.7578 5 36.7578C4.76562 36.7839 4.53125 36.7578 4.29688 36.6797C4.0625 36.6016 3.85417 36.4323 3.67188 36.1719C3.30729 36.3281 2.96875 36.3151 2.65625 36.1328C2.34375 35.9766 2.04427 35.7552 1.75781 35.4688C1.4974 35.1562 1.23698 34.8307 0.976562 34.4922C0.716146 34.1536 0.46875 33.9062 0.234375 33.75C0.078125 33.3333 0.0911458 32.9818 0.273438 32.6953C0.429688 32.3828 0.611979 32.0964 0.820312 31.8359C1.0026 31.5495 1.13281 31.276 1.21094 31.0156C1.28906 30.7292 1.17188 30.3906 0.859375 30C1.11979 29.6094 1.35417 29.2057 1.5625 28.7891C1.77083 28.3464 1.97917 27.9167 2.1875 27.5C2.42188 27.0573 2.65625 26.6406 2.89062 26.25C3.15104 25.8333 3.46354 25.4818 3.82812 25.1953C3.67188 25.013 3.59375 24.8438 3.59375 24.6875C3.59375 24.5052 3.63281 24.3359 3.71094 24.1797C3.78906 23.9974 3.88021 23.8281 3.98438 23.6719C4.08854 23.4896 4.16667 23.3203 4.21875 23.1641L5.35156 22.6172L5.07812 21.6797C5.36458 21.7318 5.57292 21.7188 5.70312 21.6406C5.85938 21.5625 5.96354 21.4453 6.01562 21.2891C6.09375 21.1328 6.14583 20.9635 6.17188 20.7812C6.22396 20.5729 6.28906 20.3906 6.36719 20.2344C6.4974 20 6.69271 19.8307 6.95312 19.7266C7.5 19.3099 8.03385 18.8672 8.55469 18.3984C9.10156 17.9297 9.63542 17.474 10.1562 17.0312C10.7031 16.5885 11.263 16.1719 11.8359 15.7812C12.4089 15.3646 13.0339 15.013 13.7109 14.7266C14.1797 14.8047 14.5443 14.9479 14.8047 15.1562C15.0911 15.3646 15.2995 15.612 15.4297 15.8984C15.5859 16.1849 15.7031 16.5104 15.7812 16.875C15.8594 17.2135 15.9375 17.5521 16.0156 17.8906C16.1458 18.3333 16.3021 18.7109 16.4844 19.0234C16.6667 19.3359 16.9792 19.5964 17.4219 19.8047C17.0573 20.4297 16.9141 21.0547 16.9922 21.6797C17.0703 22.2786 17.1484 22.9167 17.2266 23.5938C17.3047 24.2188 17.2917 24.8307 17.1875 25.4297C17.1094 26.0286 16.7318 26.5625 16.0547 27.0312C16.0026 27.2135 15.9896 27.4089 16.0156 27.6172C16.0417 27.8255 16.0547 28.0339 16.0547 28.2422C16.0547 28.4505 16.0156 28.6458 15.9375 28.8281C15.8594 29.0104 15.7161 29.1536 15.5078 29.2578C15.7422 29.5443 15.8594 29.8307 15.8594 30.1172C15.8854 30.4036 15.8984 30.6771 15.8984 30.9375C15.9245 31.1979 15.9896 31.4323 16.0938 31.6406C16.224 31.849 16.5104 32.0052 16.9531 32.1094C17.0312 32.4479 17.0964 32.7083 17.1484 32.8906C17.2266 33.0469 17.3047 33.1771 17.3828 33.2812C17.487 33.3854 17.6172 33.4896 17.7734 33.5938C17.9297 33.6719 18.138 33.8021 18.3984 33.9844C18.6068 34.0365 18.8411 34.0365 19.1016 33.9844C19.362 33.9323 19.5703 34.0104 19.7266 34.2188C19.8568 34.0885 20.013 34.0234 20.1953 34.0234C20.3776 33.9974 20.5469 33.9974 20.7031 34.0234L21.2109 34.8828C21.4974 34.6745 21.8229 34.4922 22.1875 34.3359C22.5521 34.1797 22.9036 34.0495 23.2422 33.9453C23.6328 33.8411 24.0234 33.75 24.4141 33.6719L28.0469 31.4844ZM13.0469 18.125C12.8125 18.3333 12.526 18.5417 12.1875 18.75C11.849 18.9583 11.5104 19.1797 11.1719 19.4141C10.8594 19.6484 10.5859 19.9089 10.3516 20.1953C10.1172 20.4557 9.97396 20.7682 9.92188 21.1328C9.32292 21.237 8.90625 21.4844 8.67188 21.875C8.4375 22.2656 8.24219 22.6953 8.08594 23.1641C7.92969 23.6328 7.76042 24.1016 7.57812 24.5703C7.39583 25.013 7.07031 25.3646 6.60156 25.625C6.44531 25.7292 6.30208 25.7812 6.17188 25.7812C6.19792 25.7812 6.11979 25.8333 5.9375 25.9375C5.65104 26.1458 5.40365 26.4062 5.19531 26.7188C4.98698 27.0312 4.80469 27.3698 4.64844 27.7344C4.51823 28.099 4.38802 28.4766 4.25781 28.8672C4.15365 29.2318 4.04948 29.5703 3.94531 29.8828C3.58073 29.9349 3.30729 30.013 3.125 30.1172C2.94271 30.2214 2.82552 30.3385 2.77344 30.4688C2.7474 30.5729 2.76042 30.7031 2.8125 30.8594C2.86458 31.0156 2.94271 31.1849 3.04688 31.3672C3.15104 31.5234 3.25521 31.7057 3.35938 31.9141C3.48958 32.1224 3.59375 32.3307 3.67188 32.5391C3.75 32.7474 3.78906 32.9557 3.78906 33.1641C3.8151 33.3724 3.76302 33.5677 3.63281 33.75C3.9974 34.0365 4.34896 34.1016 4.6875 33.9453C5.02604 33.763 5.33854 33.5677 5.625 33.3594C5.72917 33.2812 5.83333 33.2031 5.9375 33.125C6.06771 33.0208 6.19792 32.9427 6.32812 32.8906C6.92708 33.0208 7.47396 32.9818 7.96875 32.7734C8.46354 32.5651 8.91927 32.2786 9.33594 31.9141C9.7526 31.5495 10.1562 31.1589 10.5469 30.7422C10.9375 30.3255 11.3281 29.9609 11.7188 29.6484L11.4062 29.3359C11.875 29.2057 12.2005 29.0365 12.3828 28.8281C12.5911 28.5938 12.7214 28.3333 12.7734 28.0469C12.8255 27.7604 12.8255 27.4609 12.7734 27.1484C12.7214 26.8099 12.6823 26.4583 12.6562 26.0938C12.6302 25.8854 12.6172 25.6901 12.6172 25.5078C12.6432 25.2995 12.6953 25.0911 12.7734 24.8828C12.5651 24.2839 12.526 23.7109 12.6562 23.1641C12.8125 22.6172 13.0078 22.0964 13.2422 21.6016C13.5026 21.0807 13.75 20.5599 13.9844 20.0391C14.2188 19.5182 14.3359 18.9714 14.3359 18.3984L13.0469 18.125ZM47.8906 34.1797C47.9167 34.4922 47.8646 34.7266 47.7344 34.8828C47.6042 35.0391 47.4219 35.1562 47.1875 35.2344C46.9792 35.3125 46.7448 35.3776 46.4844 35.4297C46.224 35.4557 46.0026 35.5208 45.8203 35.625C45.0651 35.5469 44.3359 35.4427 43.6328 35.3125C42.9297 35.1562 42.2786 34.9349 41.6797 34.6484C41.0807 34.3359 40.5339 33.9323 40.0391 33.4375C39.5703 32.9427 39.1667 32.3177 38.8281 31.5625C39.1667 31.0156 39.2839 30.4167 39.1797 29.7656C39.0755 29.0885 38.9714 28.4375 38.8672 27.8125C38.7891 27.1875 38.8021 26.6146 38.9062 26.0938C39.0365 25.5729 39.4922 25.1562 40.2734 24.8438C40.2214 24.5573 40.2214 24.2448 40.2734 23.9062C40.3516 23.5677 40.2604 23.2812 40 23.0469C39.0885 23.3594 38.2943 23.8021 37.6172 24.375C36.9401 24.9479 36.2891 25.5729 35.6641 26.25C35.0651 26.9271 34.4531 27.6172 33.8281 28.3203C33.2292 28.9974 32.5651 29.5964 31.8359 30.1172C31.4974 30.1432 31.1328 30.1302 30.7422 30.0781C30.3776 30 30.0651 30.1042 29.8047 30.3906C29.8307 30.5729 29.8958 30.7292 30 30.8594C30.1042 30.9896 30.1823 31.1198 30.2344 31.25C30.3125 31.3802 30.3516 31.5234 30.3516 31.6797C30.3516 31.8099 30.2604 31.9661 30.0781 32.1484C29.8177 32.4089 29.5312 32.6302 29.2188 32.8125C28.9323 32.9688 28.6458 33.151 28.3594 33.3594C28.099 33.5417 27.8776 33.763 27.6953 34.0234C27.513 34.2839 27.4219 34.6354 27.4219 35.0781C27.2656 35 27.1224 34.987 26.9922 35.0391C26.862 35.0651 26.7448 35.1302 26.6406 35.2344C26.5104 35.3385 26.3932 35.4557 26.2891 35.5859C26.1849 35.7161 26.0807 35.8203 25.9766 35.8984C25.9245 36.0286 25.9375 36.1328 26.0156 36.2109C26.0938 36.3151 26.1849 36.4193 26.2891 36.5234C26.1849 36.8099 26.0547 36.9792 25.8984 37.0312C25.7161 37.1094 25.5339 37.1224 25.3516 37.0703C25.1432 37.0182 24.9479 36.9271 24.7656 36.7969C24.5573 36.6927 24.375 36.6016 24.2188 36.5234C24.1406 36.1849 24.0885 35.7943 24.0625 35.3516C24.0365 34.9089 24.0495 34.4792 24.1016 34.0625C24.1536 33.6198 24.2578 33.2031 24.4141 32.8125C24.5703 32.4219 24.8047 32.0964 25.1172 31.8359C25.2214 31.7578 25.2865 31.7188 25.3125 31.7188C25.3385 31.6927 25.3516 31.6797 25.3516 31.6797C25.3516 31.6797 25.3646 31.6797 25.3906 31.6797C25.4167 31.6536 25.4688 31.6016 25.5469 31.5234C25.7552 31.2891 25.8984 31.0417 25.9766 30.7812C26.0547 30.4948 26.1198 30.2083 26.1719 29.9219C26.224 29.6354 26.3021 29.362 26.4062 29.1016C26.4844 28.8151 26.6406 28.5677 26.875 28.3594C26.7708 27.9427 26.7708 27.5781 26.875 27.2656C27.0052 26.9271 27.1615 26.6146 27.3438 26.3281C27.5521 26.0156 27.7474 25.7161 27.9297 25.4297C28.138 25.1172 28.2682 24.7786 28.3203 24.4141C28.3464 24.2839 28.3464 24.1667 28.3203 24.0625C28.3203 23.9323 28.3203 23.8021 28.3203 23.6719C28.2682 23.2552 28.3073 22.9427 28.4375 22.7344C28.5938 22.5 28.776 22.3177 28.9844 22.1875C29.2188 22.0312 29.4531 21.875 29.6875 21.7188C29.9479 21.5625 30.1693 21.3281 30.3516 21.0156C31.1068 21.3802 31.5495 21.875 31.6797 22.5C31.8359 23.099 31.888 23.776 31.8359 24.5312C31.3932 24.8177 31.0547 25.2214 30.8203 25.7422C30.5859 26.237 30.4297 26.7188 30.3516 27.1875C30.4036 27.3438 30.4688 27.4349 30.5469 27.4609C30.651 27.4609 30.7552 27.4479 30.8594 27.4219C30.9896 27.3698 31.1068 27.3177 31.2109 27.2656C31.3151 27.2135 31.4193 27.1875 31.5234 27.1875C32.4609 26.5365 33.3854 25.8073 34.2969 25C35.2344 24.1927 35.9635 23.2682 36.4844 22.2266C37.2396 21.862 37.9557 21.4453 38.6328 20.9766C39.3099 20.4818 40.0521 20.1172 40.8594 19.8828L41.7578 18.9844C41.888 19.1927 42.0443 19.2448 42.2266 19.1406C42.4089 19.0104 42.5911 18.8672 42.7734 18.7109C42.9557 18.5547 43.125 18.4635 43.2812 18.4375C43.4635 18.4115 43.6328 18.5938 43.7891 18.9844C44.0495 19.6615 44.1146 20.3255 43.9844 20.9766C43.8542 21.6016 43.6458 22.2266 43.3594 22.8516C43.099 23.4505 42.8255 24.0625 42.5391 24.6875C42.2526 25.3125 42.0833 25.9505 42.0312 26.6016C42.0312 26.7578 42.0312 26.9271 42.0312 27.1094C42.0312 27.2656 42.0182 27.4349 41.9922 27.6172C41.9401 28.1641 41.862 28.763 41.7578 29.4141C41.6797 30.0391 41.7188 30.612 41.875 31.1328C42.0052 31.6016 42.2786 32.0182 42.6953 32.3828C43.112 32.7474 43.4766 33.112 43.7891 33.4766C43.9714 33.4505 44.1536 33.4635 44.3359 33.5156C44.5182 33.5677 44.6875 33.6198 44.8438 33.6719C45.026 33.724 45.1953 33.75 45.3516 33.75C45.5078 33.724 45.6641 33.6328 45.8203 33.4766C46.0026 33.3984 46.1719 33.4115 46.3281 33.5156C46.5104 33.5938 46.6797 33.6979 46.8359 33.8281C46.9922 33.9583 47.1484 34.0755 47.3047 34.1797C47.487 34.2578 47.6823 34.2578 47.8906 34.1797ZM71.2891 34.1797C71.3151 34.4922 71.263 34.7266 71.1328 34.8828C71.0026 35.0391 70.8203 35.1562 70.5859 35.2344C70.3776 35.3125 70.1432 35.3776 69.8828 35.4297C69.6224 35.4557 69.401 35.5208 69.2188 35.625C68.4635 35.5469 67.7344 35.4427 67.0312 35.3125C66.3281 35.1562 65.6771 34.9349 65.0781 34.6484C64.4792 34.3359 63.9323 33.9323 63.4375 33.4375C62.9688 32.9427 62.5651 32.3177 62.2266 31.5625C62.5651 31.0156 62.6823 30.4167 62.5781 29.7656C62.474 29.0885 62.3698 28.4375 62.2656 27.8125C62.1875 27.1875 62.2005 26.6146 62.3047 26.0938C62.4349 25.5729 62.8906 25.1562 63.6719 24.8438C63.6198 24.5573 63.6198 24.2448 63.6719 23.9062C63.75 23.5677 63.6589 23.2812 63.3984 23.0469C62.487 23.3594 61.6927 23.8021 61.0156 24.375C60.3385 24.9479 59.6875 25.5729 59.0625 26.25C58.4635 26.9271 57.8516 27.6172 57.2266 28.3203C56.6276 28.9974 55.9635 29.5964 55.2344 30.1172C54.8958 30.1432 54.5312 30.1302 54.1406 30.0781C53.776 30 53.4635 30.1042 53.2031 30.3906C53.2292 30.5729 53.2943 30.7292 53.3984 30.8594C53.5026 30.9896 53.5807 31.1198 53.6328 31.25C53.7109 31.3802 53.75 31.5234 53.75 31.6797C53.75 31.8099 53.6589 31.9661 53.4766 32.1484C53.2161 32.4089 52.9297 32.6302 52.6172 32.8125C52.3307 32.9688 52.0443 33.151 51.7578 33.3594C51.4974 33.5417 51.276 33.763 51.0938 34.0234C50.9115 34.2839 50.8203 34.6354 50.8203 35.0781C50.6641 35 50.5208 34.987 50.3906 35.0391C50.2604 35.0651 50.1432 35.1302 50.0391 35.2344C49.9089 35.3385 49.7917 35.4557 49.6875 35.5859C49.5833 35.7161 49.4792 35.8203 49.375 35.8984C49.3229 36.0286 49.3359 36.1328 49.4141 36.2109C49.4922 36.3151 49.5833 36.4193 49.6875 36.5234C49.5833 36.8099 49.4531 36.9792 49.2969 37.0312C49.1146 37.1094 48.9323 37.1224 48.75 37.0703C48.5417 37.0182 48.3464 36.9271 48.1641 36.7969C47.9557 36.6927 47.7734 36.6016 47.6172 36.5234C47.5391 36.1849 47.487 35.7943 47.4609 35.3516C47.4349 34.9089 47.4479 34.4792 47.5 34.0625C47.5521 33.6198 47.6562 33.2031 47.8125 32.8125C47.9688 32.4219 48.2031 32.0964 48.5156 31.8359C48.6198 31.7578 48.6849 31.7188 48.7109 31.7188C48.737 31.6927 48.75 31.6797 48.75 31.6797C48.75 31.6797 48.763 31.6797 48.7891 31.6797C48.8151 31.6536 48.8672 31.6016 48.9453 31.5234C49.1536 31.2891 49.2969 31.0417 49.375 30.7812C49.4531 30.4948 49.5182 30.2083 49.5703 29.9219C49.6224 29.6354 49.7005 29.362 49.8047 29.1016C49.8828 28.8151 50.0391 28.5677 50.2734 28.3594C50.1693 27.9427 50.1693 27.5781 50.2734 27.2656C50.4036 26.9271 50.5599 26.6146 50.7422 26.3281C50.9505 26.0156 51.1458 25.7161 51.3281 25.4297C51.5365 25.1172 51.6667 24.7786 51.7188 24.4141C51.7448 24.2839 51.7448 24.1667 51.7188 24.0625C51.7188 23.9323 51.7188 23.8021 51.7188 23.6719C51.6667 23.2552 51.7057 22.9427 51.8359 22.7344C51.9922 22.5 52.1745 22.3177 52.3828 22.1875C52.6172 22.0312 52.8516 21.875 53.0859 21.7188C53.3464 21.5625 53.5677 21.3281 53.75 21.0156C54.5052 21.3802 54.9479 21.875 55.0781 22.5C55.2344 23.099 55.2865 23.776 55.2344 24.5312C54.7917 24.8177 54.4531 25.2214 54.2188 25.7422C53.9844 26.237 53.8281 26.7188 53.75 27.1875C53.8021 27.3438 53.8672 27.4349 53.9453 27.4609C54.0495 27.4609 54.1536 27.4479 54.2578 27.4219C54.388 27.3698 54.5052 27.3177 54.6094 27.2656C54.7135 27.2135 54.8177 27.1875 54.9219 27.1875C55.8594 26.5365 56.7839 25.8073 57.6953 25C58.6328 24.1927 59.362 23.2682 59.8828 22.2266C60.638 21.862 61.3542 21.4453 62.0312 20.9766C62.7083 20.4818 63.4505 20.1172 64.2578 19.8828L65.1562 18.9844C65.2865 19.1927 65.4427 19.2448 65.625 19.1406C65.8073 19.0104 65.9896 18.8672 66.1719 18.7109C66.3542 18.5547 66.5234 18.4635 66.6797 18.4375C66.862 18.4115 67.0312 18.5938 67.1875 18.9844C67.4479 19.6615 67.513 20.3255 67.3828 20.9766C67.2526 21.6016 67.0443 22.2266 66.7578 22.8516C66.4974 23.4505 66.224 24.0625 65.9375 24.6875C65.651 25.3125 65.4818 25.9505 65.4297 26.6016C65.4297 26.7578 65.4297 26.9271 65.4297 27.1094C65.4297 27.2656 65.4167 27.4349 65.3906 27.6172C65.3385 28.1641 65.2604 28.763 65.1562 29.4141C65.0781 30.0391 65.1172 30.612 65.2734 31.1328C65.4036 31.6016 65.6771 32.0182 66.0938 32.3828C66.5104 32.7474 66.875 33.112 67.1875 33.4766C67.3698 33.4505 67.5521 33.4635 67.7344 33.5156C67.9167 33.5677 68.0859 33.6198 68.2422 33.6719C68.4245 33.724 68.5938 33.75 68.75 33.75C68.9062 33.724 69.0625 33.6328 69.2188 33.4766C69.401 33.3984 69.5703 33.4115 69.7266 33.5156C69.9089 33.5938 70.0781 33.6979 70.2344 33.8281C70.3906 33.9583 70.5469 34.0755 70.7031 34.1797C70.8854 34.2578 71.0807 34.2578 71.2891 34.1797ZM101.484 24.4141C101.198 24.7786 100.977 25.1823 100.82 25.625C100.664 26.0677 100.469 26.4844 100.234 26.875C100.026 27.2656 99.7526 27.5911 99.4141 27.8516C99.1016 28.112 98.6589 28.2292 98.0859 28.2031C97.6693 28.3594 97.3568 28.6458 97.1484 29.0625C96.9661 29.4531 96.7839 29.8568 96.6016 30.2734C96.4193 30.6641 96.1849 30.9896 95.8984 31.25C95.612 31.4844 95.1823 31.5104 94.6094 31.3281C93.8802 31.6406 93.2161 32.0573 92.6172 32.5781C92.0443 33.0729 91.4974 33.5938 90.9766 34.1406C90.7943 34.3229 90.5859 34.5573 90.3516 34.8438C90.1172 35.1042 89.8958 35.2995 89.6875 35.4297C89.5052 35.5339 89.3229 35.5469 89.1406 35.4688C88.9583 35.3906 88.7891 35.3125 88.6328 35.2344C88.4766 35.1302 88.3203 35.0781 88.1641 35.0781C88.0339 35.0781 87.9167 35.1953 87.8125 35.4297C87.9948 35.7943 88.0339 36.0417 87.9297 36.1719C87.8255 36.3281 87.6562 36.4453 87.4219 36.5234C87.1875 36.6016 86.9401 36.6667 86.6797 36.7188C86.4193 36.7708 86.2109 36.862 86.0547 36.9922C85.7422 37.2786 85.5208 37.6302 85.3906 38.0469C85.2604 38.4635 85.1432 38.8802 85.0391 39.2969C84.9349 39.7135 84.7786 40.1042 84.5703 40.4688C84.388 40.8594 84.0755 41.1589 83.6328 41.3672C83.8932 41.5495 83.9974 41.7318 83.9453 41.9141C83.9193 42.0964 83.8542 42.2786 83.75 42.4609C83.6458 42.6693 83.5677 42.8646 83.5156 43.0469C83.4896 43.2292 83.5938 43.4115 83.8281 43.5938C83.4375 44.0885 83.0859 44.6224 82.7734 45.1953C82.487 45.7682 82.2005 46.3411 81.9141 46.9141C81.6276 47.513 81.3151 48.0859 80.9766 48.6328C80.6641 49.2057 80.2604 49.7135 79.7656 50.1562L79.8828 51.0938C79.4922 50.9896 79.2448 51.0026 79.1406 51.1328C79.0625 51.263 79.0234 51.4453 79.0234 51.6797C79.0234 51.9141 79.0234 52.1484 79.0234 52.3828C79.0495 52.6432 78.9714 52.8385 78.7891 52.9688C78.7109 53.0729 78.6198 53.151 78.5156 53.2031C78.4375 53.2552 78.3594 53.3203 78.2812 53.3984C77.4479 54.0234 76.875 54.8177 76.5625 55.7812C76.5104 55.9375 76.4714 56.0938 76.4453 56.25C76.4193 56.4062 76.3802 56.5755 76.3281 56.7578C76.1979 57.1224 75.9896 57.5 75.7031 57.8906C75.4167 58.2812 75.1042 58.6849 74.7656 59.1016C74.4271 59.5182 74.1016 59.9479 73.7891 60.3906C73.4766 60.8594 73.2292 61.3281 73.0469 61.7969C72.6302 61.7448 72.3047 61.7839 72.0703 61.9141C71.8099 62.0703 71.6016 62.2656 71.4453 62.5C71.2891 62.7604 71.1589 63.0339 71.0547 63.3203C70.9505 63.6068 70.8203 63.8542 70.6641 64.0625C70.4818 64.2969 70.2604 64.4661 70 64.5703C69.7135 64.7005 69.349 64.7005 68.9062 64.5703L67.1484 66.1719C66.8359 65.9896 66.5365 65.9505 66.25 66.0547C65.9375 66.1589 65.638 66.3021 65.3516 66.4844C65.0391 66.6667 64.7396 66.8099 64.4531 66.9141C64.1406 67.0182 63.8151 66.9792 63.4766 66.7969C63.2943 67.0052 63.138 67.1094 63.0078 67.1094C62.8776 67.1354 62.7214 67.0312 62.5391 66.7969L61.9531 67.4219C61.6406 67.1615 61.263 66.9141 60.8203 66.6797C60.3516 66.4714 59.9219 66.224 59.5312 65.9375C59.1406 65.6771 58.8281 65.3646 58.5938 65C58.3594 64.6615 58.3203 64.2188 58.4766 63.6719C58.4245 63.5156 58.3464 63.3464 58.2422 63.1641C58.112 62.9818 58.0078 62.7865 57.9297 62.5781C57.8516 62.3958 57.7995 62.2005 57.7734 61.9922C57.7474 61.8099 57.7995 61.6406 57.9297 61.4844C57.6953 61.0417 57.6172 60.5859 57.6953 60.1172C57.7474 59.6745 57.8385 59.2318 57.9688 58.7891C58.099 58.3464 58.2031 57.9036 58.2812 57.4609C58.3594 57.0182 58.2812 56.5755 58.0469 56.1328C58.3594 55.8984 58.5938 55.599 58.75 55.2344C58.8802 54.8698 59.0104 54.4922 59.1406 54.1016C59.2448 53.7109 59.362 53.3333 59.4922 52.9688C59.6224 52.6042 59.8438 52.3047 60.1562 52.0703L60.1172 51.4453C61.3411 50.1432 62.6432 48.9453 64.0234 47.8516C65.3776 46.7839 66.9141 45.9896 68.6328 45.4688C68.9714 44.8698 69.4141 44.4271 69.9609 44.1406C70.5078 43.8802 71.0677 43.6328 71.6406 43.3984C72.1875 43.1901 72.6953 42.9167 73.1641 42.5781C73.6328 42.2656 73.9844 41.7578 74.2188 41.0547C74.349 41.3411 74.4792 41.4583 74.6094 41.4062C74.7396 41.3802 74.8698 41.3151 75 41.2109C75.1562 41.1328 75.2995 41.0677 75.4297 41.0156C75.5599 40.9896 75.6901 41.1068 75.8203 41.3672C76.0807 40.5859 76.4974 39.9609 77.0703 39.4922C77.6693 39.0234 78.3203 38.6068 79.0234 38.2422C79.7526 37.9036 80.4818 37.5651 81.2109 37.2266C81.9401 36.9141 82.5781 36.5234 83.125 36.0547C83.6979 35.5859 84.1276 35.013 84.4141 34.3359C84.7005 33.6328 84.7656 32.7344 84.6094 31.6406C84.8438 31.4844 85 31.2891 85.0781 31.0547C85.1562 30.7943 85.2083 30.5339 85.2344 30.2734C85.2865 30.013 85.3516 29.7786 85.4297 29.5703C85.5078 29.362 85.6771 29.2188 85.9375 29.1406C85.7552 28.8542 85.5339 28.724 85.2734 28.75C85.013 28.776 84.7396 28.8542 84.4531 28.9844C84.1927 29.1146 83.9453 29.2448 83.7109 29.375C83.4766 29.5052 83.2812 29.5312 83.125 29.4531C83.0469 29.8177 82.8776 30.0781 82.6172 30.2344C82.3828 30.3906 82.1224 30.5339 81.8359 30.6641C81.5495 30.7682 81.25 30.8854 80.9375 31.0156C80.625 31.1458 80.3776 31.3542 80.1953 31.6406C79.9609 31.5365 79.7396 31.5885 79.5312 31.7969C79.349 31.9792 79.1536 32.1875 78.9453 32.4219C78.763 32.6302 78.5547 32.7865 78.3203 32.8906C78.0859 32.9948 77.8125 32.8906 77.5 32.5781C77.3438 32.9948 77.0833 33.2682 76.7188 33.3984C76.3802 33.5286 76.0026 33.5938 75.5859 33.5938C75.1693 33.5938 74.7396 33.5677 74.2969 33.5156C73.8802 33.4635 73.5026 33.4766 73.1641 33.5547L72.5 32.8906C72.4479 33.0208 72.3698 33.125 72.2656 33.2031C72.1354 33.2812 72.0052 33.2943 71.875 33.2422C71.6667 32.7995 71.4714 32.3307 71.2891 31.8359C71.0807 31.3151 70.9505 30.8073 70.8984 30.3125C70.8203 29.7917 70.8594 29.2969 71.0156 28.8281C71.1719 28.3333 71.4844 27.9036 71.9531 27.5391C72.6823 26.2109 73.6328 25.1693 74.8047 24.4141C74.9349 24.5182 75.0781 24.5573 75.2344 24.5312C75.3906 24.4792 75.5469 24.4141 75.7031 24.3359C75.8854 24.2318 76.0547 24.1276 76.2109 24.0234C76.3672 23.8932 76.5104 23.8151 76.6406 23.7891C76.7188 23.5026 76.862 23.2292 77.0703 22.9688C77.3047 22.7083 77.5521 22.474 77.8125 22.2656C78.099 22.0573 78.3854 21.875 78.6719 21.7188C78.9844 21.5365 79.2708 21.3802 79.5312 21.25C80.026 21.0156 80.4818 20.7292 80.8984 20.3906C81.3411 20.026 81.7839 19.6875 82.2266 19.375C82.6693 19.0365 83.125 18.75 83.5938 18.5156C84.0625 18.2812 84.5964 18.1641 85.1953 18.1641L85.8984 18.7891C85.4557 19.0495 85.0651 19.375 84.7266 19.7656C84.4141 20.1302 84.0885 20.5078 83.75 20.8984C83.4115 21.263 83.0469 21.6016 82.6562 21.9141C82.2656 22.2266 81.7839 22.4349 81.2109 22.5391C80.7422 23.4505 80.1042 24.2318 79.2969 24.8828C78.5156 25.5078 77.7083 26.0938 76.875 26.6406C76.875 27.0312 76.7578 27.3438 76.5234 27.5781C76.2891 27.8125 76.0156 28.0208 75.7031 28.2031C75.3906 28.3854 75.0781 28.5547 74.7656 28.7109C74.4531 28.8411 74.1927 29.0234 73.9844 29.2578C73.8021 29.4661 73.7109 29.7396 73.7109 30.0781C73.7109 30.3906 73.8802 30.8073 74.2188 31.3281C74.5312 31.1719 74.9089 31.0677 75.3516 31.0156C75.7943 30.9635 76.224 30.8984 76.6406 30.8203C77.0573 30.7161 77.4219 30.5729 77.7344 30.3906C78.0729 30.1823 78.3073 29.8698 78.4375 29.4531C78.8021 29.1406 79.1927 28.9453 79.6094 28.8672C80.026 28.7891 80.4557 28.776 80.8984 28.8281C81.7578 27.8906 82.6172 27.0312 83.4766 26.25C84.362 25.4427 85.1953 24.6224 85.9766 23.7891C86.7578 22.9557 87.474 22.0703 88.125 21.1328C88.8021 20.1693 89.388 19.0625 89.8828 17.8125C90.4036 17.6562 90.8724 17.7214 91.2891 18.0078C91.7057 18.2943 92.0052 18.6589 92.1875 19.1016C92.1354 19.4141 92.0443 19.7135 91.9141 20C91.8099 20.2604 91.7057 20.5208 91.6016 20.7812C91.5234 21.0156 91.4583 21.276 91.4062 21.5625C91.3802 21.849 91.4323 22.1745 91.5625 22.5391C91.3542 22.487 91.1849 22.5521 91.0547 22.7344C90.9505 22.9167 90.8333 23.0729 90.7031 23.2031C90.7812 23.5417 90.7682 23.8542 90.6641 24.1406C90.5599 24.401 90.4297 24.6615 90.2734 24.9219C90.1172 25.1562 89.974 25.4167 89.8438 25.7031C89.7396 25.9896 89.7135 26.3021 89.7656 26.6406C89.401 27.3177 89.1276 28.0339 88.9453 28.7891C88.7891 29.5182 88.6849 30.2604 88.6328 31.0156L89.3359 31.6406C89.6745 31.1458 90.0911 30.7943 90.5859 30.5859C91.1068 30.3776 91.6276 30.2083 92.1484 30.0781C92.6693 29.9219 93.1771 29.7526 93.6719 29.5703C94.1667 29.362 94.5964 29.0104 94.9609 28.5156C95.1172 27.7604 95.4427 27.2266 95.9375 26.9141C96.4323 26.5755 96.9531 26.2891 97.5 26.0547C98.0469 25.8203 98.5677 25.5599 99.0625 25.2734C99.5833 24.9609 99.9479 24.4661 100.156 23.7891H101.133C101.081 23.9193 101.107 24.0365 101.211 24.1406C101.315 24.2448 101.406 24.3359 101.484 24.4141ZM79.8828 41.7188C79.6224 41.875 79.3359 42.0182 79.0234 42.1484C78.7109 42.2786 78.3984 42.4219 78.0859 42.5781C77.7734 42.7344 77.487 42.9167 77.2266 43.125C76.9661 43.3333 76.7708 43.5938 76.6406 43.9062C76.3542 43.75 76.0807 43.737 75.8203 43.8672C75.5859 44.0234 75.3516 44.1927 75.1172 44.375C74.8828 44.5833 74.6354 44.7526 74.375 44.8828C74.1406 45.013 73.8802 45 73.5938 44.8438C73.099 45.1562 72.6302 45.4948 72.1875 45.8594C71.7188 46.224 71.25 46.5755 70.7812 46.9141C70.3125 47.2786 69.8307 47.6042 69.3359 47.8906C68.8151 48.2031 68.2682 48.4375 67.6953 48.5938C67.4089 49.0625 67.0312 49.4271 66.5625 49.6875C66.0938 49.974 65.625 50.2474 65.1562 50.5078C64.6615 50.7682 64.2188 51.0807 63.8281 51.4453C63.4375 51.8099 63.1901 52.3177 63.0859 52.9688C62.2786 53.4896 61.7318 54.1536 61.4453 54.9609C61.1328 55.7943 60.9635 56.6667 60.9375 57.5781C60.9115 58.5156 60.9505 59.4531 61.0547 60.3906C61.1589 61.3542 61.2109 62.2266 61.2109 63.0078C61.5495 63.3984 61.888 63.6719 62.2266 63.8281C62.5651 63.9844 62.9167 64.0625 63.2812 64.0625C63.6458 64.0625 64.0234 64.0104 64.4141 63.9062C64.7786 63.8281 65.1823 63.75 65.625 63.6719C65.7292 63.2812 65.9245 63.0208 66.2109 62.8906C66.4714 62.7865 66.7578 62.7083 67.0703 62.6562C67.3568 62.6042 67.6302 62.526 67.8906 62.4219C68.125 62.3438 68.2552 62.1354 68.2812 61.7969L68.6328 62.1094C68.6589 61.6927 68.776 61.3411 68.9844 61.0547C69.1927 60.7943 69.4401 60.5469 69.7266 60.3125C70.013 60.0781 70.3255 59.8568 70.6641 59.6484C70.9766 59.4401 71.25 59.2057 71.4844 58.9453C71.4323 58.4505 71.5234 58.0339 71.7578 57.6953C71.9922 57.3568 72.2526 57.0443 72.5391 56.7578C72.8255 56.4714 73.0859 56.1589 73.3203 55.8203C73.5286 55.4818 73.6068 55.0521 73.5547 54.5312C73.8151 54.4271 73.9974 54.2578 74.1016 54.0234C74.2057 53.7891 74.3099 53.5677 74.4141 53.3594C74.5182 53.151 74.6484 52.9948 74.8047 52.8906C74.987 52.7865 75.2604 52.8125 75.625 52.9688C75.2604 52.6823 75.1042 52.4609 75.1562 52.3047C75.2344 52.1484 75.3646 52.0052 75.5469 51.875C75.7292 51.7708 75.8984 51.6406 76.0547 51.4844C76.2109 51.3281 76.2109 51.0938 76.0547 50.7812C76.6797 50.5208 77.0833 50.1432 77.2656 49.6484C77.4479 49.1536 77.5781 48.6198 77.6562 48.0469C77.7604 47.5 77.9036 46.9531 78.0859 46.4062C78.2682 45.8854 78.6719 45.4688 79.2969 45.1562C79.2448 44.6875 79.3229 44.2708 79.5312 43.9062C79.7656 43.5677 79.987 43.2422 80.1953 42.9297C80.4297 42.6172 80.5859 42.2917 80.6641 41.9531C80.7682 41.6146 80.6771 41.2109 80.3906 40.7422L79.8828 41.7188ZM125.195 22.7734C125.221 23.1641 125.143 23.5417 124.961 23.9062C124.805 24.2708 124.661 24.5964 124.531 24.8828L123.281 26.2109L122.539 28.4375C122.253 28.6458 121.94 28.8542 121.602 29.0625C121.289 29.2448 121.003 29.4401 120.742 29.6484C120.456 29.8828 120.195 30.1432 119.961 30.4297C119.753 30.7161 119.518 30.9635 119.258 31.1719C118.997 31.3802 118.685 31.5625 118.32 31.7188C117.982 31.849 117.669 32.0052 117.383 32.1875C116.862 32.5 116.367 32.8255 115.898 33.1641C115.456 33.5026 114.987 33.8281 114.492 34.1406C114.362 34.1927 114.258 34.2578 114.18 34.3359C114.128 34.388 114.036 34.4401 113.906 34.4922C113.828 34.5443 113.49 34.6484 112.891 34.8047C112.292 34.9609 111.628 35.1432 110.898 35.3516C110.195 35.5339 109.531 35.7031 108.906 35.8594C108.281 36.0156 107.93 36.0938 107.852 36.0938C107.383 36.1458 106.901 36.1719 106.406 36.1719C105.911 36.1719 105.417 36.1849 104.922 36.2109L104.336 36.5625C104.049 36.3542 103.737 36.1589 103.398 35.9766C103.06 35.7943 102.773 35.599 102.539 35.3906C102.279 35.1562 102.018 34.8958 101.758 34.6094C101.497 34.2969 101.263 34.0104 101.055 33.75C100.924 33.3854 100.794 33.0339 100.664 32.6953C100.534 32.3307 100.43 31.9792 100.352 31.6406L100.156 30.1562C100.104 29.6615 100.052 29.1797 100 28.7109C99.974 28.2422 99.9349 27.7604 99.8828 27.2656C100.326 26.0417 100.716 24.8177 101.055 23.5938C101.419 22.3438 101.862 21.1198 102.383 19.9219C102.513 19.6354 102.63 19.349 102.734 19.0625C102.865 18.75 102.995 18.4505 103.125 18.1641C103.281 17.8516 103.451 17.5651 103.633 17.3047C103.815 17.0182 103.971 16.7318 104.102 16.4453C104.232 16.1328 104.336 15.8203 104.414 15.5078C104.492 15.1693 104.596 14.8568 104.727 14.5703C104.805 14.4141 104.935 14.1927 105.117 13.9062C105.299 13.5938 105.495 13.2812 105.703 12.9688C105.911 12.6302 106.107 12.3047 106.289 11.9922C106.497 11.6797 106.667 11.4323 106.797 11.25C107.005 10.9896 107.214 10.7422 107.422 10.5078C107.63 10.2734 107.799 10.013 107.93 9.72656C108.19 9.28385 108.438 8.72396 108.672 8.04688C108.906 7.36979 109.167 6.77083 109.453 6.25C109.766 5.67708 110.13 5.14323 110.547 4.64844C110.99 4.1276 111.393 3.59375 111.758 3.04688C112.148 2.5 112.526 1.90104 112.891 1.25L114.609 0L115.391 0.78125L117.266 0.46875L118.438 2.22656C118.385 2.61719 118.32 3.0599 118.242 3.55469C118.19 4.04948 118.138 4.55729 118.086 5.07812C118.06 5.57292 118.034 6.06771 118.008 6.5625C118.008 7.03125 118.034 7.44792 118.086 7.8125C117.956 8.28125 117.76 8.77604 117.5 9.29688C117.266 9.79167 116.992 10.2214 116.68 10.5859L116.523 12.6953L114.961 14.1016L114.766 16.0938L113.438 17.6562C113.359 18.0208 113.281 18.3984 113.203 18.7891C113.125 19.1536 113.021 19.5052 112.891 19.8438C112.76 20.1562 112.604 20.4818 112.422 20.8203C112.24 21.1328 112.057 21.4583 111.875 21.7969C111.354 22.2396 110.82 22.7344 110.273 23.2812C109.727 23.8281 109.232 24.375 108.789 24.9219C108.555 25.2083 108.333 25.5208 108.125 25.8594C107.943 26.1719 107.747 26.4714 107.539 26.7578C106.862 27.6172 106.133 28.4245 105.352 29.1797C104.57 29.9349 103.802 30.7161 103.047 31.5234L103.906 33.0469C104.453 33.2292 105.013 33.3984 105.586 33.5547C106.159 33.7109 106.732 33.8542 107.305 33.9844C107.565 33.9323 107.865 33.8802 108.203 33.8281C108.542 33.75 108.893 33.6719 109.258 33.5938C109.622 33.4896 109.974 33.3854 110.312 33.2812C110.677 33.1771 110.977 33.0729 111.211 32.9688C111.732 32.7604 112.331 32.4609 113.008 32.0703C113.685 31.6536 114.258 31.2891 114.727 30.9766C115.56 30.4557 116.406 29.9219 117.266 29.375C118.125 28.8281 118.945 28.2552 119.727 27.6562C120.247 27.2656 120.794 26.7708 121.367 26.1719C121.94 25.5729 122.474 25.013 122.969 24.4922C123.49 23.9453 123.945 23.5026 124.336 23.1641C124.753 22.8255 125.039 22.6953 125.195 22.7734ZM114.57 4.29688C114.023 5.20833 113.438 6.09375 112.812 6.95312C112.214 7.78646 111.654 8.65885 111.133 9.57031C110.951 9.88281 110.794 10.2083 110.664 10.5469C110.534 10.8594 110.365 11.1719 110.156 11.4844C109.974 11.7708 109.779 12.0573 109.57 12.3438C109.362 12.6302 109.18 12.9427 109.023 13.2812C108.711 13.8802 108.424 14.5182 108.164 15.1953C107.93 15.8464 107.669 16.4844 107.383 17.1094C107.07 17.7344 106.706 18.3203 106.289 18.8672C105.872 19.4141 105.495 20 105.156 20.625L104.531 21.875C104.479 22.0052 104.427 22.1094 104.375 22.1875C104.323 22.2396 104.271 22.3307 104.219 22.4609C104.115 22.7474 104.062 23.0599 104.062 23.3984C104.062 23.737 104.023 24.0495 103.945 24.3359C103.867 24.6484 103.75 24.9479 103.594 25.2344C103.438 25.5208 103.294 25.8073 103.164 26.0938C103.034 26.3802 102.93 26.6797 102.852 26.9922C102.773 27.2786 102.682 27.5651 102.578 27.8516C102.786 27.6432 103.008 27.4609 103.242 27.3047C103.503 27.1224 103.75 26.9271 103.984 26.7188C104.219 26.4844 104.44 26.237 104.648 25.9766C104.857 25.7161 105.091 25.4818 105.352 25.2734C105.586 25.0651 105.833 24.8828 106.094 24.7266C106.38 24.5443 106.654 24.362 106.914 24.1797C107.331 23.6068 107.695 23.0208 108.008 22.4219C108.164 22.1354 108.294 21.8099 108.398 21.4453C108.529 21.0807 108.685 20.7552 108.867 20.4688C109.023 20.1823 109.219 19.9089 109.453 19.6484C109.714 19.388 109.935 19.1146 110.117 18.8281C110.326 18.5417 110.495 18.2422 110.625 17.9297C110.781 17.6172 110.951 17.3177 111.133 17.0312C111.497 16.4583 111.901 15.9115 112.344 15.3906L112.539 12.9297L113.945 11.2891L114.141 9.80469L115.117 8.4375L115.234 6.25L114.57 4.29688Z" fill="#DA6635"/>
</svg>
