<svg width="209" height="128" viewBox="0 0 209 128" fill="none" xmlns="http://www.w3.org/2000/svg">
<g filter="url(#filter0_d_368_15820)">
<rect x="-13" y="15" width="187" height="68" rx="10" fill="white" shape-rendering="crispEdges"/>
<path d="M29 40H14V53H29V40Z" stroke="#DA6635" stroke-width="2" stroke-linecap="round" stroke-linejoin="round"/>
<path d="M29 45H33L36 48V53H29V45Z" stroke="#DA6635" stroke-width="2" stroke-linecap="round" stroke-linejoin="round"/>
<path d="M18.5 58C19.8807 58 21 56.8807 21 55.5C21 54.1193 19.8807 53 18.5 53C17.1193 53 16 54.1193 16 55.5C16 56.8807 17.1193 58 18.5 58Z" stroke="#DA6635" stroke-width="2" stroke-linecap="round" stroke-linejoin="round"/>
<path d="M31.5 58C32.8807 58 34 56.8807 34 55.5C34 54.1193 32.8807 53 31.5 53C30.1193 53 29 54.1193 29 55.5C29 56.8807 30.1193 58 31.5 58Z" stroke="#DA6635" stroke-width="2" stroke-linecap="round" stroke-linejoin="round"/>
<path d="M53.3672 54.5V44.4922H49.7344V43.2266H58.4062V44.4922H54.7734V54.5H53.3672ZM59.2344 54.5V46.0781H60.5938V47.3281H60.7188C60.8802 46.8854 61.1536 46.5417 61.5391 46.2969C61.9245 46.0521 62.401 45.9297 62.9688 45.9297C63.099 45.9297 63.2266 45.9375 63.3516 45.9531C63.4818 45.9635 63.5807 45.974 63.6484 45.9844V47.3047C63.5078 47.2786 63.3698 47.2604 63.2344 47.25C63.1042 47.2344 62.9635 47.2266 62.8125 47.2266C62.3802 47.2266 61.9974 47.3125 61.6641 47.4844C61.3307 47.6562 61.0677 47.8958 60.875 48.2031C60.6875 48.5104 60.5938 48.8698 60.5938 49.2812V54.5H59.2344ZM68.1484 54.6484C67.513 54.6484 66.9792 54.5286 66.5469 54.2891C66.1146 54.0443 65.7891 53.6901 65.5703 53.2266C65.3568 52.7578 65.25 52.1927 65.25 51.5312V46.0781H66.6094V51.2031C66.6094 51.9583 66.7552 52.5208 67.0469 52.8906C67.3438 53.2604 67.8281 53.4453 68.5 53.4453C68.8698 53.4453 69.1953 53.3906 69.4766 53.2812C69.763 53.1719 70.0026 53.0156 70.1953 52.8125C70.388 52.6042 70.5312 52.3542 70.625 52.0625C70.724 51.7656 70.7734 51.4323 70.7734 51.0625V46.0781H72.1328V54.5H70.7734V53.2422H70.6484C70.513 53.5391 70.3281 53.7943 70.0938 54.0078C69.8594 54.2161 69.5781 54.375 69.25 54.4844C68.9271 54.5938 68.5599 54.6484 68.1484 54.6484ZM78.1172 54.6484C77.3307 54.6484 76.6484 54.4688 76.0703 54.1094C75.4922 53.75 75.0443 53.2422 74.7266 52.5859C74.4089 51.9297 74.25 51.1562 74.25 50.2656V50.25C74.25 49.375 74.4062 48.6146 74.7188 47.9688C75.0365 47.3229 75.4844 46.8229 76.0625 46.4688C76.6406 46.1094 77.3229 45.9297 78.1094 45.9297C78.7917 45.9297 79.3802 46.0495 79.875 46.2891C80.3698 46.5286 80.7656 46.8516 81.0625 47.2578C81.3594 47.6589 81.5495 48.1094 81.6328 48.6094L81.6406 48.6562H80.2891L80.2812 48.6328C80.1771 48.2161 79.9401 47.862 79.5703 47.5703C79.2005 47.2786 78.7135 47.1328 78.1094 47.1328C77.6042 47.1328 77.1667 47.2604 76.7969 47.5156C76.4271 47.7708 76.1406 48.1328 75.9375 48.6016C75.7396 49.0651 75.6406 49.6146 75.6406 50.25V50.2656C75.6406 50.9115 75.7422 51.474 75.9453 51.9531C76.1484 52.4271 76.4349 52.7943 76.8047 53.0547C77.1745 53.3151 77.6094 53.4453 78.1094 53.4453C78.6771 53.4453 79.1406 53.3229 79.5 53.0781C79.8594 52.8333 80.1172 52.4766 80.2734 52.0078L80.2891 51.9609L81.6328 51.9531L81.6172 52.0391C81.5026 52.5443 81.2995 52.9948 81.0078 53.3906C80.7161 53.7812 80.3307 54.0885 79.8516 54.3125C79.3724 54.5365 78.7943 54.6484 78.1172 54.6484ZM83.7031 54.5V42.7344H85.0625V54.5H83.7031ZM89.0078 54.5L85.7188 50.375L86.7188 49.5078L90.7188 54.5H89.0078ZM84.8906 51.4688L84.8281 49.7578H85.1875L88.8281 46.0781H90.4766L86.4766 49.9375L86.1484 50.2578L84.8906 51.4688ZM99.125 54.6484C98.5938 54.6484 98.1146 54.5469 97.6875 54.3438C97.2656 54.1406 96.9297 53.8516 96.6797 53.4766C96.4349 53.1016 96.3125 52.6589 96.3125 52.1484V52.1328C96.3125 51.6328 96.4323 51.2057 96.6719 50.8516C96.9115 50.4922 97.2604 50.2109 97.7188 50.0078C98.1771 49.8047 98.7318 49.6849 99.3828 49.6484L102.477 49.4609V50.5469L99.5469 50.7344C98.9062 50.7708 98.4375 50.9036 98.1406 51.1328C97.849 51.362 97.7031 51.6849 97.7031 52.1016V52.1172C97.7031 52.5443 97.8646 52.8776 98.1875 53.1172C98.5104 53.3516 98.9167 53.4688 99.4062 53.4688C99.8698 53.4688 100.281 53.3776 100.641 53.1953C101 53.0078 101.281 52.7552 101.484 52.4375C101.693 52.1198 101.797 51.7604 101.797 51.3594V48.7344C101.797 48.2135 101.638 47.8177 101.32 47.5469C101.008 47.2708 100.536 47.1328 99.9062 47.1328C99.401 47.1328 98.987 47.224 98.6641 47.4062C98.3411 47.5833 98.125 47.8359 98.0156 48.1641L98.0078 48.1875H96.6484L96.6562 48.1406C96.7292 47.6979 96.9115 47.3125 97.2031 46.9844C97.5 46.651 97.8828 46.3932 98.3516 46.2109C98.8203 46.0234 99.3542 45.9297 99.9531 45.9297C100.641 45.9297 101.221 46.0417 101.695 46.2656C102.174 46.4896 102.536 46.8125 102.781 47.2344C103.031 47.651 103.156 48.151 103.156 48.7344V54.5H101.797V53.2578H101.672C101.495 53.5547 101.279 53.8073 101.023 54.0156C100.773 54.224 100.49 54.3828 100.172 54.4922C99.8542 54.5964 99.5052 54.6484 99.125 54.6484ZM105.641 54.5V46.0781H107V47.3281H107.125C107.286 46.8854 107.56 46.5417 107.945 46.2969C108.331 46.0521 108.807 45.9297 109.375 45.9297C109.505 45.9297 109.633 45.9375 109.758 45.9531C109.888 45.9635 109.987 45.974 110.055 45.9844V47.3047C109.914 47.2786 109.776 47.2604 109.641 47.25C109.51 47.2344 109.37 47.2266 109.219 47.2266C108.786 47.2266 108.404 47.3125 108.07 47.4844C107.737 47.6562 107.474 47.8958 107.281 48.2031C107.094 48.5104 107 48.8698 107 49.2812V54.5H105.641ZM111.891 54.5V46.0781H113.25V47.3281H113.375C113.536 46.8854 113.81 46.5417 114.195 46.2969C114.581 46.0521 115.057 45.9297 115.625 45.9297C115.755 45.9297 115.883 45.9375 116.008 45.9531C116.138 45.9635 116.237 45.974 116.305 45.9844V47.3047C116.164 47.2786 116.026 47.2604 115.891 47.25C115.76 47.2344 115.62 47.2266 115.469 47.2266C115.036 47.2266 114.654 47.3125 114.32 47.4844C113.987 47.6562 113.724 47.8958 113.531 48.2031C113.344 48.5104 113.25 48.8698 113.25 49.2812V54.5H111.891ZM118.016 54.5V46.0781H119.375V54.5H118.016ZM118.703 44.4531C118.448 44.4531 118.227 44.362 118.039 44.1797C117.857 43.9922 117.766 43.7708 117.766 43.5156C117.766 43.2552 117.857 43.0339 118.039 42.8516C118.227 42.6693 118.448 42.5781 118.703 42.5781C118.964 42.5781 119.185 42.6693 119.367 42.8516C119.549 43.0339 119.641 43.2552 119.641 43.5156C119.641 43.7708 119.549 43.9922 119.367 44.1797C119.185 44.362 118.964 44.4531 118.703 44.4531ZM124.32 54.5L121.203 46.0781H122.641L124.945 53.0156H125.07L127.375 46.0781H128.812L125.695 54.5H124.32ZM133.734 54.6484C132.932 54.6484 132.242 54.4714 131.664 54.1172C131.091 53.763 130.648 53.263 130.336 52.6172C130.029 51.9661 129.875 51.2005 129.875 50.3203V50.3125C129.875 49.4427 130.029 48.6797 130.336 48.0234C130.648 47.3672 131.089 46.8542 131.656 46.4844C132.224 46.1146 132.888 45.9297 133.648 45.9297C134.414 45.9297 135.07 46.1068 135.617 46.4609C136.169 46.8151 136.591 47.3099 136.883 47.9453C137.18 48.5755 137.328 49.3099 137.328 50.1484V50.6797H130.578V49.5938H136.633L135.961 50.5859V50.0469C135.961 49.3854 135.862 48.8411 135.664 48.4141C135.466 47.987 135.193 47.6693 134.844 47.4609C134.495 47.2474 134.094 47.1406 133.641 47.1406C133.188 47.1406 132.781 47.2526 132.422 47.4766C132.068 47.6953 131.786 48.0208 131.578 48.4531C131.37 48.8854 131.266 49.4167 131.266 50.0469V50.5859C131.266 51.1849 131.367 51.6979 131.57 52.125C131.773 52.5469 132.062 52.8724 132.438 53.1016C132.812 53.3255 133.255 53.4375 133.766 53.4375C134.146 53.4375 134.477 53.3854 134.758 53.2812C135.039 53.1771 135.271 53.0443 135.453 52.8828C135.635 52.7214 135.763 52.5573 135.836 52.3906L135.867 52.3203H137.227L137.211 52.3828C137.138 52.6693 137.008 52.9479 136.82 53.2188C136.638 53.4844 136.401 53.7266 136.109 53.9453C135.818 54.1589 135.471 54.3307 135.07 54.4609C134.674 54.5859 134.229 54.6484 133.734 54.6484ZM142.547 54.6484C141.839 54.6484 141.219 54.4688 140.688 54.1094C140.156 53.75 139.745 53.2448 139.453 52.5938C139.161 51.9375 139.016 51.1719 139.016 50.2969V50.2812C139.016 49.401 139.161 48.6354 139.453 47.9844C139.745 47.3333 140.154 46.8281 140.68 46.4688C141.211 46.1094 141.833 45.9297 142.547 45.9297C142.932 45.9297 143.294 45.9922 143.633 46.1172C143.977 46.237 144.281 46.4062 144.547 46.625C144.812 46.8438 145.021 47.1042 145.172 47.4062H145.297V42.7344H146.656V54.5H145.297V53.1562H145.172C145 53.4688 144.784 53.737 144.523 53.9609C144.263 54.1797 143.966 54.349 143.633 54.4688C143.299 54.5885 142.938 54.6484 142.547 54.6484ZM142.859 53.4453C143.37 53.4453 143.81 53.3177 144.18 53.0625C144.549 52.8073 144.833 52.4453 145.031 51.9766C145.229 51.5026 145.328 50.9427 145.328 50.2969V50.2812C145.328 49.6302 145.229 49.0703 145.031 48.6016C144.833 48.1328 144.549 47.7708 144.18 47.5156C143.81 47.2604 143.37 47.1328 142.859 47.1328C142.349 47.1328 141.909 47.2604 141.539 47.5156C141.174 47.7656 140.893 48.125 140.695 48.5938C140.503 49.0625 140.406 49.625 140.406 50.2812V50.2969C140.406 50.9479 140.503 51.5104 140.695 51.9844C140.893 52.4531 141.174 52.8151 141.539 53.0703C141.909 53.3203 142.349 53.4453 142.859 53.4453Z" fill="#052145"/>
</g>
<defs>
<filter id="filter0_d_368_15820" x="-38" y="0" width="247" height="128" filterUnits="userSpaceOnUse" color-interpolation-filters="sRGB">
<feFlood flood-opacity="0" result="BackgroundImageFix"/>
<feColorMatrix in="SourceAlpha" type="matrix" values="0 0 0 0 0 0 0 0 0 0 0 0 0 0 0 0 0 0 127 0" result="hardAlpha"/>
<feOffset dx="5" dy="15"/>
<feGaussianBlur stdDeviation="15"/>
<feComposite in2="hardAlpha" operator="out"/>
<feColorMatrix type="matrix" values="0 0 0 0 0 0 0 0 0 0 0 0 0 0 0 0 0 0 0.08 0"/>
<feBlend mode="normal" in2="BackgroundImageFix" result="effect1_dropShadow_368_15820"/>
<feBlend mode="normal" in="SourceGraphic" in2="effect1_dropShadow_368_15820" result="shape"/>
</filter>
</defs>
</svg>
