<svg width="345" height="128" viewBox="0 0 345 128" fill="none" xmlns="http://www.w3.org/2000/svg">
<g filter="url(#filter0_d_368_15814)">
<rect x="25" y="15" width="284.666" height="68" rx="10" fill="white" shape-rendering="crispEdges"/>
<path d="M61.833 37C67.816 37 72.6658 41.8501 72.666 47.833C72.666 53.8161 67.8161 58.666 61.833 58.666C55.8501 58.6658 51 53.816 51 47.833C51.0002 41.8502 55.8502 37.0002 61.833 37ZM61.833 38.666C56.7707 38.6662 52.6662 42.7707 52.666 47.833C52.666 52.8955 56.7705 56.9998 61.833 57C66.8956 57 71 52.8956 71 47.833C70.9998 42.7705 66.8955 38.666 61.833 38.666ZM67.5527 45.5273L61.7627 51.5273L61.1396 52.1738L60.4297 51.6221L56.2197 48.3496L56.833 47.5605L57.4463 46.7705L60.9473 49.4922L66.1133 44.1387L67.5527 45.5273Z" fill="#DA6635"/>
<path d="M86.1035 53.333V42.0596H87.7363L91.5957 51.4658H91.7207L95.5801 42.0596H97.2129V53.333H95.9004V44.7236H95.2129L96.791 42.3721L92.252 53.333H91.0645L86.5332 42.3721L88.1035 44.7236H87.416V53.333H86.1035ZM103.377 53.4814C102.58 53.4814 101.89 53.307 101.307 52.958C100.729 52.6038 100.281 52.1012 99.9629 51.4502C99.6504 50.7992 99.4941 50.0257 99.4941 49.1299V49.1143C99.4941 48.2132 99.6504 47.4372 99.9629 46.7861C100.281 46.1351 100.729 45.6351 101.307 45.2861C101.89 44.9372 102.58 44.7627 103.377 44.7627C104.179 44.7627 104.869 44.9372 105.447 45.2861C106.025 45.6351 106.471 46.1351 106.783 46.7861C107.101 47.4372 107.26 48.2132 107.26 49.1143V49.1299C107.26 50.0257 107.101 50.7992 106.783 51.4502C106.471 52.1012 106.025 52.6038 105.447 52.958C104.869 53.307 104.179 53.4814 103.377 53.4814ZM103.377 52.2783C103.908 52.2783 104.359 52.1533 104.729 51.9033C105.098 51.6533 105.38 51.2939 105.572 50.8252C105.77 50.3564 105.869 49.7913 105.869 49.1299V49.1143C105.869 48.4476 105.77 47.8799 105.572 47.4111C105.38 46.9424 105.098 46.5856 104.729 46.3408C104.359 46.0908 103.908 45.9658 103.377 45.9658C102.846 45.9658 102.395 46.0908 102.025 46.3408C101.656 46.5856 101.372 46.9424 101.174 47.4111C100.981 47.8799 100.885 48.4476 100.885 49.1143V49.1299C100.885 49.7913 100.981 50.3564 101.174 50.8252C101.372 51.2939 101.656 51.6533 102.025 51.9033C102.395 52.1533 102.846 52.2783 103.377 52.2783ZM111.439 53.333L108.322 44.9111H109.76L112.064 51.8486H112.189L114.494 44.9111H115.932L112.814 53.333H111.439ZM120.854 53.4814C120.051 53.4814 119.361 53.3044 118.783 52.9502C118.21 52.596 117.768 52.096 117.455 51.4502C117.148 50.7992 116.994 50.0335 116.994 49.1533V49.1455C116.994 48.2757 117.148 47.5127 117.455 46.8564C117.768 46.2002 118.208 45.6872 118.775 45.3174C119.343 44.9476 120.007 44.7627 120.768 44.7627C121.533 44.7627 122.189 44.9398 122.736 45.2939C123.288 45.6481 123.71 46.1429 124.002 46.7783C124.299 47.4085 124.447 48.1429 124.447 48.9814V49.5127H117.697V48.4268H123.752L123.08 49.4189V48.8799C123.08 48.2184 122.981 47.6742 122.783 47.2471C122.585 46.82 122.312 46.5023 121.963 46.2939C121.614 46.0804 121.213 45.9736 120.76 45.9736C120.307 45.9736 119.9 46.0856 119.541 46.3096C119.187 46.5283 118.906 46.8538 118.697 47.2861C118.489 47.7184 118.385 48.2497 118.385 48.8799V49.4189C118.385 50.0179 118.486 50.5309 118.689 50.958C118.893 51.3799 119.182 51.7054 119.557 51.9346C119.932 52.1585 120.374 52.2705 120.885 52.2705C121.265 52.2705 121.596 52.2184 121.877 52.1143C122.158 52.0101 122.39 51.8773 122.572 51.7158C122.755 51.5544 122.882 51.3903 122.955 51.2236L122.986 51.1533H124.346L124.33 51.2158C124.257 51.5023 124.127 51.7809 123.939 52.0518C123.757 52.3174 123.52 52.5596 123.229 52.7783C122.937 52.9919 122.59 53.1637 122.189 53.2939C121.794 53.4189 121.348 53.4814 120.854 53.4814ZM126.557 53.333V44.9111H127.916V46.1611H128.041C128.202 45.7184 128.476 45.3747 128.861 45.1299C129.247 44.8851 129.723 44.7627 130.291 44.7627C130.421 44.7627 130.549 44.7705 130.674 44.7861C130.804 44.7965 130.903 44.807 130.971 44.8174V46.1377C130.83 46.1117 130.692 46.0934 130.557 46.083C130.426 46.0674 130.286 46.0596 130.135 46.0596C129.702 46.0596 129.32 46.1455 128.986 46.3174C128.653 46.4893 128.39 46.7288 128.197 47.0361C128.01 47.3434 127.916 47.7028 127.916 48.1143V53.333H126.557ZM141.338 53.4814C140.947 53.4814 140.585 53.4215 140.252 53.3018C139.919 53.182 139.622 53.0127 139.361 52.7939C139.101 52.57 138.885 52.3018 138.713 51.9893H138.588V53.333H137.229V41.5674H138.588V46.2393H138.713C138.869 45.9372 139.077 45.6768 139.338 45.458C139.604 45.2393 139.906 45.07 140.244 44.9502C140.588 44.8252 140.952 44.7627 141.338 44.7627C142.051 44.7627 142.671 44.9424 143.197 45.3018C143.729 45.6611 144.14 46.1663 144.432 46.8174C144.723 47.4684 144.869 48.234 144.869 49.1143V49.1299C144.869 50.0049 144.723 50.7705 144.432 51.4268C144.14 52.0778 143.729 52.583 143.197 52.9424C142.671 53.3018 142.051 53.4814 141.338 53.4814ZM141.025 52.2783C141.541 52.2783 141.981 52.1533 142.346 51.9033C142.71 51.6481 142.989 51.2861 143.182 50.8174C143.38 50.3434 143.479 49.7809 143.479 49.1299V49.1143C143.479 48.458 143.38 47.8955 143.182 47.4268C142.989 46.958 142.71 46.5986 142.346 46.3486C141.981 46.0934 141.541 45.9658 141.025 45.9658C140.515 45.9658 140.075 46.0934 139.705 46.3486C139.335 46.6038 139.051 46.9658 138.854 47.4346C138.656 47.9033 138.557 48.4632 138.557 49.1143V49.1299C138.557 49.7757 138.656 50.3356 138.854 50.8096C139.051 51.2783 139.335 51.6403 139.705 51.8955C140.075 52.1507 140.515 52.2783 141.025 52.2783ZM150.439 53.4814C149.643 53.4814 148.952 53.307 148.369 52.958C147.791 52.6038 147.343 52.1012 147.025 51.4502C146.713 50.7992 146.557 50.0257 146.557 49.1299V49.1143C146.557 48.2132 146.713 47.4372 147.025 46.7861C147.343 46.1351 147.791 45.6351 148.369 45.2861C148.952 44.9372 149.643 44.7627 150.439 44.7627C151.242 44.7627 151.932 44.9372 152.51 45.2861C153.088 45.6351 153.533 46.1351 153.846 46.7861C154.163 47.4372 154.322 48.2132 154.322 49.1143V49.1299C154.322 50.0257 154.163 50.7992 153.846 51.4502C153.533 52.1012 153.088 52.6038 152.51 52.958C151.932 53.307 151.242 53.4814 150.439 53.4814ZM150.439 52.2783C150.971 52.2783 151.421 52.1533 151.791 51.9033C152.161 51.6533 152.442 51.2939 152.635 50.8252C152.833 50.3564 152.932 49.7913 152.932 49.1299V49.1143C152.932 48.4476 152.833 47.8799 152.635 47.4111C152.442 46.9424 152.161 46.5856 151.791 46.3408C151.421 46.0908 150.971 45.9658 150.439 45.9658C149.908 45.9658 149.458 46.0908 149.088 46.3408C148.718 46.5856 148.434 46.9424 148.236 47.4111C148.044 47.8799 147.947 48.4476 147.947 49.1143V49.1299C147.947 49.7913 148.044 50.3564 148.236 50.8252C148.434 51.2939 148.718 51.6533 149.088 51.9033C149.458 52.1533 149.908 52.2783 150.439 52.2783ZM159.893 53.4814C159.096 53.4814 158.406 53.307 157.822 52.958C157.244 52.6038 156.796 52.1012 156.479 51.4502C156.166 50.7992 156.01 50.0257 156.01 49.1299V49.1143C156.01 48.2132 156.166 47.4372 156.479 46.7861C156.796 46.1351 157.244 45.6351 157.822 45.2861C158.406 44.9372 159.096 44.7627 159.893 44.7627C160.695 44.7627 161.385 44.9372 161.963 45.2861C162.541 45.6351 162.986 46.1351 163.299 46.7861C163.617 47.4372 163.775 48.2132 163.775 49.1143V49.1299C163.775 50.0257 163.617 50.7992 163.299 51.4502C162.986 52.1012 162.541 52.6038 161.963 52.958C161.385 53.307 160.695 53.4814 159.893 53.4814ZM159.893 52.2783C160.424 52.2783 160.874 52.1533 161.244 51.9033C161.614 51.6533 161.895 51.2939 162.088 50.8252C162.286 50.3564 162.385 49.7913 162.385 49.1299V49.1143C162.385 48.4476 162.286 47.8799 162.088 47.4111C161.895 46.9424 161.614 46.5856 161.244 46.3408C160.874 46.0908 160.424 45.9658 159.893 45.9658C159.361 45.9658 158.911 46.0908 158.541 46.3408C158.171 46.5856 157.887 46.9424 157.689 47.4111C157.497 47.8799 157.4 48.4476 157.4 49.1143V49.1299C157.4 49.7913 157.497 50.3564 157.689 50.8252C157.887 51.2939 158.171 51.6533 158.541 51.9033C158.911 52.1533 159.361 52.2783 159.893 52.2783ZM165.963 53.333V41.5674H167.322V53.333H165.963ZM171.268 53.333L167.979 49.208L168.979 48.3408L172.979 53.333H171.268ZM167.15 50.3018L167.088 48.5908H167.447L171.088 44.9111H172.736L168.736 48.7705L168.408 49.0908L167.15 50.3018ZM177.619 53.4814C176.817 53.4814 176.127 53.3044 175.549 52.9502C174.976 52.596 174.533 52.096 174.221 51.4502C173.913 50.7992 173.76 50.0335 173.76 49.1533V49.1455C173.76 48.2757 173.913 47.5127 174.221 46.8564C174.533 46.2002 174.973 45.6872 175.541 45.3174C176.109 44.9476 176.773 44.7627 177.533 44.7627C178.299 44.7627 178.955 44.9398 179.502 45.2939C180.054 45.6481 180.476 46.1429 180.768 46.7783C181.064 47.4085 181.213 48.1429 181.213 48.9814V49.5127H174.463V48.4268H180.518L179.846 49.4189V48.8799C179.846 48.2184 179.747 47.6742 179.549 47.2471C179.351 46.82 179.077 46.5023 178.729 46.2939C178.38 46.0804 177.979 45.9736 177.525 45.9736C177.072 45.9736 176.666 46.0856 176.307 46.3096C175.952 46.5283 175.671 46.8538 175.463 47.2861C175.255 47.7184 175.15 48.2497 175.15 48.8799V49.4189C175.15 50.0179 175.252 50.5309 175.455 50.958C175.658 51.3799 175.947 51.7054 176.322 51.9346C176.697 52.1585 177.14 52.2705 177.65 52.2705C178.031 52.2705 178.361 52.2184 178.643 52.1143C178.924 52.0101 179.156 51.8773 179.338 51.7158C179.52 51.5544 179.648 51.3903 179.721 51.2236L179.752 51.1533H181.111L181.096 51.2158C181.023 51.5023 180.893 51.7809 180.705 52.0518C180.523 52.3174 180.286 52.5596 179.994 52.7783C179.702 52.9919 179.356 53.1637 178.955 53.2939C178.559 53.4189 178.114 53.4814 177.619 53.4814ZM186.432 53.4814C185.723 53.4814 185.104 53.3018 184.572 52.9424C184.041 52.583 183.63 52.0778 183.338 51.4268C183.046 50.7705 182.9 50.0049 182.9 49.1299V49.1143C182.9 48.234 183.046 47.4684 183.338 46.8174C183.63 46.1663 184.038 45.6611 184.564 45.3018C185.096 44.9424 185.718 44.7627 186.432 44.7627C186.817 44.7627 187.179 44.8252 187.518 44.9502C187.861 45.07 188.166 45.2393 188.432 45.458C188.697 45.6768 188.906 45.9372 189.057 46.2393H189.182V41.5674H190.541V53.333H189.182V51.9893H189.057C188.885 52.3018 188.669 52.57 188.408 52.7939C188.148 53.0127 187.851 53.182 187.518 53.3018C187.184 53.4215 186.822 53.4814 186.432 53.4814ZM186.744 52.2783C187.255 52.2783 187.695 52.1507 188.064 51.8955C188.434 51.6403 188.718 51.2783 188.916 50.8096C189.114 50.3356 189.213 49.7757 189.213 49.1299V49.1143C189.213 48.4632 189.114 47.9033 188.916 47.4346C188.718 46.9658 188.434 46.6038 188.064 46.3486C187.695 46.0934 187.255 45.9658 186.744 45.9658C186.234 45.9658 185.794 46.0934 185.424 46.3486C185.059 46.5986 184.778 46.958 184.58 47.4268C184.387 47.8955 184.291 48.458 184.291 49.1143V49.1299C184.291 49.7809 184.387 50.3434 184.58 50.8174C184.778 51.2861 185.059 51.6481 185.424 51.9033C185.794 52.1533 186.234 52.2783 186.744 52.2783ZM201.518 53.5986C200.695 53.5986 199.976 53.4658 199.361 53.2002C198.752 52.9294 198.268 52.5596 197.908 52.0908C197.554 51.6169 197.348 51.0752 197.291 50.4658L197.283 50.3799H198.689L198.697 50.4658C198.734 50.8408 198.877 51.1663 199.127 51.4424C199.382 51.7132 199.721 51.9242 200.143 52.0752C200.57 52.2262 201.054 52.3018 201.596 52.3018C202.106 52.3018 202.559 52.221 202.955 52.0596C203.356 51.8929 203.671 51.6637 203.9 51.3721C204.13 51.0804 204.244 50.7445 204.244 50.3643V50.3564C204.244 49.8877 204.072 49.4945 203.729 49.1768C203.385 48.8538 202.825 48.6064 202.049 48.4346L200.799 48.1611C199.669 47.9111 198.846 47.5257 198.33 47.0049C197.82 46.4788 197.564 45.807 197.564 44.9893V44.9814C197.57 44.3564 197.739 43.8044 198.072 43.3252C198.411 42.846 198.877 42.471 199.471 42.2002C200.07 41.9294 200.757 41.7939 201.533 41.7939C202.283 41.7939 202.947 41.9294 203.525 42.2002C204.104 42.4658 204.562 42.8252 204.9 43.2783C205.244 43.7314 205.434 44.2393 205.471 44.8018L205.479 44.9111H204.072L204.057 44.8096C204.005 44.4762 203.869 44.182 203.65 43.9268C203.432 43.6663 203.14 43.4606 202.775 43.3096C202.411 43.1585 201.984 43.0856 201.494 43.0908C201.025 43.0908 200.604 43.1637 200.229 43.3096C199.854 43.4554 199.554 43.6663 199.33 43.9424C199.111 44.2132 199.002 44.5465 199.002 44.9424V44.9502C199.002 45.3981 199.169 45.7757 199.502 46.083C199.835 46.3903 200.385 46.6273 201.15 46.7939L202.4 47.0752C203.187 47.2471 203.82 47.471 204.299 47.7471C204.778 48.0231 205.127 48.3617 205.346 48.7627C205.57 49.1585 205.682 49.6273 205.682 50.1689V50.1768C205.682 50.8799 205.51 51.4867 205.166 51.9971C204.822 52.5075 204.338 52.9033 203.713 53.1846C203.088 53.4606 202.356 53.5986 201.518 53.5986ZM210.674 53.4814C210.038 53.4814 209.505 53.3617 209.072 53.1221C208.64 52.8773 208.314 52.5231 208.096 52.0596C207.882 51.5908 207.775 51.0257 207.775 50.3643V44.9111H209.135V50.0361C209.135 50.7913 209.281 51.3538 209.572 51.7236C209.869 52.0934 210.354 52.2783 211.025 52.2783C211.395 52.2783 211.721 52.2236 212.002 52.1143C212.288 52.0049 212.528 51.8486 212.721 51.6455C212.913 51.4372 213.057 51.1872 213.15 50.8955C213.249 50.5986 213.299 50.2653 213.299 49.8955V44.9111H214.658V53.333H213.299V52.0752H213.174C213.038 52.3721 212.854 52.6273 212.619 52.8408C212.385 53.0492 212.104 53.208 211.775 53.3174C211.452 53.4268 211.085 53.4814 210.674 53.4814ZM220.643 53.4814C219.856 53.4814 219.174 53.3018 218.596 52.9424C218.018 52.583 217.57 52.0752 217.252 51.4189C216.934 50.7627 216.775 49.9893 216.775 49.0986V49.083C216.775 48.208 216.932 47.4476 217.244 46.8018C217.562 46.1559 218.01 45.6559 218.588 45.3018C219.166 44.9424 219.848 44.7627 220.635 44.7627C221.317 44.7627 221.906 44.8825 222.4 45.1221C222.895 45.3617 223.291 45.6846 223.588 46.0908C223.885 46.4919 224.075 46.9424 224.158 47.4424L224.166 47.4893H222.814L222.807 47.4658C222.702 47.0492 222.465 46.695 222.096 46.4033C221.726 46.1117 221.239 45.9658 220.635 45.9658C220.13 45.9658 219.692 46.0934 219.322 46.3486C218.952 46.6038 218.666 46.9658 218.463 47.4346C218.265 47.8981 218.166 48.4476 218.166 49.083V49.0986C218.166 49.7445 218.268 50.307 218.471 50.7861C218.674 51.2601 218.96 51.6273 219.33 51.8877C219.7 52.1481 220.135 52.2783 220.635 52.2783C221.202 52.2783 221.666 52.1559 222.025 51.9111C222.385 51.6663 222.643 51.3096 222.799 50.8408L222.814 50.7939L224.158 50.7861L224.143 50.8721C224.028 51.3773 223.825 51.8278 223.533 52.2236C223.242 52.6143 222.856 52.9215 222.377 53.1455C221.898 53.3695 221.32 53.4814 220.643 53.4814ZM229.596 53.4814C228.809 53.4814 228.127 53.3018 227.549 52.9424C226.971 52.583 226.523 52.0752 226.205 51.4189C225.887 50.7627 225.729 49.9893 225.729 49.0986V49.083C225.729 48.208 225.885 47.4476 226.197 46.8018C226.515 46.1559 226.963 45.6559 227.541 45.3018C228.119 44.9424 228.801 44.7627 229.588 44.7627C230.27 44.7627 230.859 44.8825 231.354 45.1221C231.848 45.3617 232.244 45.6846 232.541 46.0908C232.838 46.4919 233.028 46.9424 233.111 47.4424L233.119 47.4893H231.768L231.76 47.4658C231.656 47.0492 231.419 46.695 231.049 46.4033C230.679 46.1117 230.192 45.9658 229.588 45.9658C229.083 45.9658 228.645 46.0934 228.275 46.3486C227.906 46.6038 227.619 46.9658 227.416 47.4346C227.218 47.8981 227.119 48.4476 227.119 49.083V49.0986C227.119 49.7445 227.221 50.307 227.424 50.7861C227.627 51.2601 227.913 51.6273 228.283 51.8877C228.653 52.1481 229.088 52.2783 229.588 52.2783C230.156 52.2783 230.619 52.1559 230.979 51.9111C231.338 51.6663 231.596 51.3096 231.752 50.8408L231.768 50.7939L233.111 50.7861L233.096 50.8721C232.981 51.3773 232.778 51.8278 232.486 52.2236C232.195 52.6143 231.809 52.9215 231.33 53.1455C230.851 53.3695 230.273 53.4814 229.596 53.4814ZM238.541 53.4814C237.739 53.4814 237.049 53.3044 236.471 52.9502C235.898 52.596 235.455 52.096 235.143 51.4502C234.835 50.7992 234.682 50.0335 234.682 49.1533V49.1455C234.682 48.2757 234.835 47.5127 235.143 46.8564C235.455 46.2002 235.895 45.6872 236.463 45.3174C237.031 44.9476 237.695 44.7627 238.455 44.7627C239.221 44.7627 239.877 44.9398 240.424 45.2939C240.976 45.6481 241.398 46.1429 241.689 46.7783C241.986 47.4085 242.135 48.1429 242.135 48.9814V49.5127H235.385V48.4268H241.439L240.768 49.4189V48.8799C240.768 48.2184 240.669 47.6742 240.471 47.2471C240.273 46.82 239.999 46.5023 239.65 46.2939C239.301 46.0804 238.9 45.9736 238.447 45.9736C237.994 45.9736 237.588 46.0856 237.229 46.3096C236.874 46.5283 236.593 46.8538 236.385 47.2861C236.176 47.7184 236.072 48.2497 236.072 48.8799V49.4189C236.072 50.0179 236.174 50.5309 236.377 50.958C236.58 51.3799 236.869 51.7054 237.244 51.9346C237.619 52.1585 238.062 52.2705 238.572 52.2705C238.952 52.2705 239.283 52.2184 239.564 52.1143C239.846 52.0101 240.077 51.8773 240.26 51.7158C240.442 51.5544 240.57 51.3903 240.643 51.2236L240.674 51.1533H242.033L242.018 51.2158C241.945 51.5023 241.814 51.7809 241.627 52.0518C241.445 52.3174 241.208 52.5596 240.916 52.7783C240.624 52.9919 240.278 53.1637 239.877 53.2939C239.481 53.4189 239.036 53.4814 238.541 53.4814ZM247.135 53.4814C246.51 53.4814 245.958 53.3877 245.479 53.2002C244.999 53.0075 244.614 52.7393 244.322 52.3955C244.036 52.0518 243.867 51.6481 243.814 51.1846H245.205C245.32 51.5335 245.544 51.8148 245.877 52.0283C246.21 52.2419 246.645 52.3486 247.182 52.3486C247.562 52.3486 247.895 52.2939 248.182 52.1846C248.473 52.07 248.702 51.9163 248.869 51.7236C249.036 51.5257 249.119 51.2992 249.119 51.0439V51.0283C249.119 50.7419 249.005 50.4997 248.775 50.3018C248.546 50.0986 248.171 49.9346 247.65 49.8096L246.346 49.4971C245.82 49.3721 245.387 49.2106 245.049 49.0127C244.71 48.8096 244.46 48.5622 244.299 48.2705C244.137 47.9736 244.057 47.6247 244.057 47.2236V47.2158C244.057 46.7471 244.192 46.3278 244.463 45.958C244.739 45.5882 245.114 45.2965 245.588 45.083C246.062 44.8695 246.596 44.7627 247.189 44.7627C247.778 44.7627 248.299 44.8564 248.752 45.0439C249.21 45.2262 249.577 45.4867 249.854 45.8252C250.135 46.1637 250.307 46.5622 250.369 47.0205H249.033C248.945 46.6872 248.742 46.4163 248.424 46.208C248.106 45.9997 247.692 45.8955 247.182 45.8955C246.848 45.8955 246.551 45.9502 246.291 46.0596C246.031 46.1637 245.825 46.3096 245.674 46.4971C245.523 46.6846 245.447 46.9033 245.447 47.1533V47.1689C245.447 47.3564 245.497 47.5231 245.596 47.6689C245.695 47.8148 245.848 47.9424 246.057 48.0518C246.265 48.1611 246.533 48.2575 246.861 48.3408L248.158 48.6533C248.95 48.846 249.538 49.1221 249.924 49.4814C250.314 49.8408 250.51 50.3226 250.51 50.9268V50.9424C250.51 51.4424 250.361 51.8851 250.064 52.2705C249.768 52.6507 249.364 52.9476 248.854 53.1611C248.348 53.3747 247.775 53.4814 247.135 53.4814ZM253.182 53.333V46.0361H251.783V44.9111H253.182V43.9736C253.182 43.4111 253.273 42.9476 253.455 42.583C253.643 42.2132 253.919 41.9398 254.283 41.7627C254.648 41.5804 255.096 41.4893 255.627 41.4893C255.794 41.4893 255.95 41.4971 256.096 41.5127C256.247 41.5231 256.393 41.5413 256.533 41.5674V42.6533C256.45 42.6377 256.354 42.6273 256.244 42.6221C256.135 42.6169 256.02 42.6143 255.9 42.6143C255.416 42.6143 255.067 42.7314 254.854 42.9658C254.645 43.2002 254.541 43.5492 254.541 44.0127V44.9111H256.455V46.0361H254.541V53.333H253.182ZM261.236 53.4814C260.601 53.4814 260.067 53.3617 259.635 53.1221C259.202 52.8773 258.877 52.5231 258.658 52.0596C258.445 51.5908 258.338 51.0257 258.338 50.3643V44.9111H259.697V50.0361C259.697 50.7913 259.843 51.3538 260.135 51.7236C260.432 52.0934 260.916 52.2783 261.588 52.2783C261.958 52.2783 262.283 52.2236 262.564 52.1143C262.851 52.0049 263.09 51.8486 263.283 51.6455C263.476 51.4372 263.619 51.1872 263.713 50.8955C263.812 50.5986 263.861 50.2653 263.861 49.8955V44.9111H265.221V53.333H263.861V52.0752H263.736C263.601 52.3721 263.416 52.6273 263.182 52.8408C262.947 53.0492 262.666 53.208 262.338 53.3174C262.015 53.4268 261.648 53.4814 261.236 53.4814ZM267.838 53.333V41.5674H269.197V53.333H267.838ZM271.885 53.333V41.5674H273.244V53.333H271.885ZM276.572 56.2861C276.484 56.2861 276.385 56.2809 276.275 56.2705C276.166 56.2653 276.064 56.2549 275.971 56.2393V55.1221C276.054 55.1377 276.145 55.1481 276.244 55.1533C276.343 55.1585 276.439 55.1611 276.533 55.1611C276.919 55.1611 277.234 55.0622 277.479 54.8643C277.729 54.6663 277.929 54.3252 278.08 53.8408L278.236 53.3408L275.119 44.9111H276.572L279.166 52.6924L278.627 51.8408H279.268L278.729 52.6924L281.314 44.9111H282.744L279.455 53.8486C279.226 54.4788 278.984 54.971 278.729 55.3252C278.473 55.6794 278.174 55.9268 277.83 56.0674C277.492 56.2132 277.072 56.2861 276.572 56.2861Z" fill="#052145"/>
</g>
<defs>
<filter id="filter0_d_368_15814" x="0" y="0" width="344.666" height="128" filterUnits="userSpaceOnUse" color-interpolation-filters="sRGB">
<feFlood flood-opacity="0" result="BackgroundImageFix"/>
<feColorMatrix in="SourceAlpha" type="matrix" values="0 0 0 0 0 0 0 0 0 0 0 0 0 0 0 0 0 0 127 0" result="hardAlpha"/>
<feOffset dx="5" dy="15"/>
<feGaussianBlur stdDeviation="15"/>
<feComposite in2="hardAlpha" operator="out"/>
<feColorMatrix type="matrix" values="0 0 0 0 0 0 0 0 0 0 0 0 0 0 0 0 0 0 0.08 0"/>
<feBlend mode="normal" in2="BackgroundImageFix" result="effect1_dropShadow_368_15814"/>
<feBlend mode="normal" in="SourceGraphic" in2="effect1_dropShadow_368_15814" result="shape"/>
</filter>
</defs>
</svg>
