<svg width="49" height="30" viewBox="0 0 49 30" fill="none" xmlns="http://www.w3.org/2000/svg">
<path d="M38.2826 1.40197C33.7222 1.40197 30.0252 4.85785 30.0252 9.12091C30.0252 13.384 33.7222 16.8398 38.2826 16.8398C42.8431 16.8398 46.54 13.384 46.54 9.12091C46.54 4.85785 42.8431 1.40197 38.2826 1.40197Z" fill="#DA6635"/>
<path d="M38.2813 0.000112534C43.6621 0.000112534 48.04 4.09255 48.04 9.12249C48.04 14.1524 43.6621 18.2449 38.2813 18.2449C32.9004 18.2449 28.5225 14.1524 28.5225 9.12249C28.5225 4.09255 32.9004 0.000112534 38.2813 0.000112534ZM38.2813 15.438C42.0061 15.438 45.0373 12.6044 45.0373 9.12249C45.0373 5.64055 42.0061 2.807 38.2813 2.807C34.5564 2.807 31.5252 5.64055 31.5252 9.12249C31.5252 12.6044 34.5564 15.438 38.2813 15.438Z" fill="#DA6635"/>
<path d="M12.7631 1.40197C8.20265 1.40197 4.50568 4.85785 4.50568 9.12091C4.50568 13.384 8.20265 16.8398 12.7631 16.8398C17.3235 16.8398 21.0205 13.384 21.0205 9.12091C21.0205 4.85785 17.3235 1.40197 12.7631 1.40197Z" fill="#DA6635"/>
<path d="M12.7617 0.000112534C18.1426 0.000112534 22.5205 4.09255 22.5205 9.12249C22.5205 14.1524 18.1426 18.2449 12.7617 18.2449C7.38092 18.2449 3.00299 14.1524 3.00299 9.12249C3.00299 4.09255 7.38092 0.000112534 12.7617 0.000112534ZM12.7617 15.438C16.4866 15.438 19.5178 12.6044 19.5178 9.12249C19.5178 5.64055 16.4866 2.807 12.7617 2.807C9.0369 2.807 6.00568 5.64055 6.00568 9.12249C6.00568 12.6044 9.0369 15.438 12.7617 15.438Z" fill="#DA6635"/>
<path d="M46.5387 8.41979C47.3689 8.41979 48.04 9.04713 48.04 9.82323C48.04 20.6578 38.6116 29.4714 27.0212 29.4714C26.1909 29.4714 25.5198 28.8441 25.5198 28.068C25.5198 27.2919 26.1909 26.6645 27.0212 26.6645C36.9556 26.6645 45.0373 19.1098 45.0373 9.82323C45.0373 9.04713 45.7084 8.41979 46.5387 8.41979Z" fill="#DA6635"/>
<path d="M21.0192 8.41979C21.8494 8.41979 22.5205 9.04713 22.5205 9.82323C22.5205 20.6578 13.092 29.4714 1.50164 29.4714C0.671394 29.4714 0.000291824 28.8441 0.000291824 28.068C0.000291824 27.2919 0.671394 26.6645 1.50164 26.6645C11.4361 26.6645 19.5178 19.1098 19.5178 9.82323C19.5178 9.04713 20.1889 8.41979 21.0192 8.41979Z" fill="#DA6635"/>
</svg>
