<svg width="32" height="32" viewBox="0 0 32 32" fill="none" xmlns="http://www.w3.org/2000/svg">
<path d="M4.77781 20.7812C4.73813 20.9028 4.98133 23.4206 4.98133 23.4206L5.38773 23.6645L6.80917 23.4206L7.09269 21.146" fill="#333333"/>
<path d="M4.77781 20.7835C4.73813 20.9051 4.98133 23.4228 4.98133 23.4228L5.38773 23.6667L5.58997 18.875" fill="#595A5C"/>
<path d="M13.9927 23.957C13.953 24.0786 14.1962 26.5964 14.1962 26.5964L14.6026 26.8396L16.024 26.5964L16.3075 24.3225" fill="#333333"/>
<path d="M13.9927 23.9576C13.953 24.0792 14.1962 26.5969 14.1962 26.5969L14.6026 26.8401L14.8035 22.4805" fill="#595A5C"/>
<path d="M26.5752 22.6401C26.533 22.7624 26.7775 24.8481 26.7775 24.8481L27.1839 25.092L28.6053 24.8481L28.8888 22.5742" fill="#333333"/>
<path d="M26.5752 22.2089C26.533 22.3311 26.7775 24.8483 26.7775 24.8483L27.1839 25.0921L27.3861 20.7324" fill="#595A5C"/>
<path d="M15.7181 23.1531L18.1232 24.62C18.1232 24.62 18.0868 24.7883 16.5706 25.7048C16.5706 25.7048 7.57092 22.9662 7.60164 22.229L7.71556 20.4805L15.7181 23.1531Z" fill="#764E2A"/>
<path d="M15.5703 22.9601V25.0567C15.5703 25.0567 15.7054 25.803 17.1338 25.7031L29.5684 23.8203C29.5684 23.8203 30.1937 23.746 30.1783 23.1131V21.1758L15.5703 22.9601Z" fill="url(#paint0_linear_737_24210)"/>
<path d="M22.6016 20.3957L22.807 22.061L23.5795 22.3458L24.3904 22.1506L24.4332 19.7871L22.6016 20.3957Z" fill="#333333"/>
<path d="M15.6562 9.55859L23.8335 9.65459C23.8335 9.65459 25.246 9.50099 25.1225 10.6696L24.7551 20.4399L23.4963 20.7784L22.0838 16.0796L15.7234 14.884L15.6562 9.55859Z" fill="#764E2A"/>
<path d="M23.8343 9.65509C23.8343 9.65509 25.2468 9.50149 25.1233 10.6701L24.7533 20.5133L23.2109 20.8199L23.6109 10.4346L23.8343 9.65509Z" fill="url(#paint1_linear_737_24210)"/>
<path d="M23.6082 10.4346L15.4258 9.83428L15.6933 9.39844L23.8322 9.65508C23.8322 9.65508 25.0296 9.51684 25.1083 10.3354" fill="#C3996B"/>
<path d="M2.85232 6.64606C4.47088 6.1635 7.87888 5.78206 14.8658 5.93758C14.8658 5.93758 16.7685 9.27902 17.2619 15.2067C17.2619 15.2067 8.56944 15.9433 8.16944 16.1897L3.01296 13.9849L1.72656 8.07838L2.85232 6.64606Z" fill="url(#paint2_linear_737_24210)"/>
<path d="M1.6724 8.00517C1.6724 8.00517 1.60968 6.84485 2.85128 6.64453L3.7748 14.226L3.09256 14.7073L1.6724 8.00517Z" fill="#764E2A"/>
<path d="M7.17846 15.827C7.17846 15.827 10.7388 14.9643 17.2796 14.9336C17.2796 14.9336 28.893 17.0418 30.3061 18.5477L29.7826 19.98C29.7826 19.98 26.2447 21.9294 17.6156 22.4824C18.9628 22.8152 6.29334 16.9304 7.21174 19.5147L7.17846 15.827Z" fill="url(#paint3_linear_737_24210)"/>
<path d="M5.21875 10.5338C5.21875 10.5338 7.22387 10.2534 8.54739 10.3738C9.87091 10.4941 9.90995 13.463 9.63091 14.7872C9.34867 16.1094 8.34579 15.9501 8.34579 15.9501L5.21875 10.5338Z" fill="url(#paint4_linear_737_24210)"/>
<path d="M15.5703 20.7629L18.1251 22.4365C18.1251 22.4365 17.6042 22.5971 16.0874 23.5136C16.0874 23.5136 6.96481 20.7251 6.99617 19.9879L8.05729 18.3789L15.5703 20.7629Z" fill="#7C5534"/>
<path d="M7.88461 10.7219C7.88461 10.7219 4.68973 10.4454 3.95181 9.98592C3.95181 9.98592 2.57197 9.86304 2.60205 10.784C2.60205 10.784 3.42701 18.6125 3.76173 20.793C3.76173 20.793 3.82701 21.8381 4.43949 22.1133L6.90221 23.1712C6.90221 23.1712 8.43693 23.3549 8.95981 23.0477L8.34605 11.7357C8.34605 11.7357 8.49837 10.8768 7.88461 10.7219Z" fill="url(#paint5_linear_737_24210)"/>
<path d="M8.33453 11.4631C8.33453 11.4631 8.49837 10.8781 7.88461 10.7239C7.88461 10.7239 4.86957 10.098 3.95181 9.98787C3.95181 9.98787 2.57197 9.86499 2.60205 10.786C2.60205 10.786 3.49805 11.0164 6.11181 11.4637C6.11245 11.4631 7.30733 11.7613 8.33453 11.4631Z" fill="#C3996B"/>
<path d="M15.493 20.7615V22.8703C15.493 22.8703 15.3157 23.79 17.1327 23.5167L29.6844 21.6338C29.6844 21.6338 30.2629 21.6626 30.2943 20.9266V18.5586L15.493 20.7615Z" fill="url(#paint6_linear_737_24210)"/>
<defs>
<linearGradient id="paint0_linear_737_24210" x1="22.874" y1="25.7121" x2="22.874" y2="21.1745" gradientUnits="userSpaceOnUse">
<stop stop-color="#8B5F3D"/>
<stop offset="0.253" stop-color="#906340"/>
<stop offset="0.54" stop-color="#9C704B"/>
<stop offset="0.843" stop-color="#B3885D"/>
<stop offset="1" stop-color="#C3996B"/>
</linearGradient>
<linearGradient id="paint1_linear_737_24210" x1="24.1709" y1="20.8205" x2="24.1709" y2="9.64869" gradientUnits="userSpaceOnUse">
<stop stop-color="#8B5F3D"/>
<stop offset="0.253" stop-color="#906340"/>
<stop offset="0.54" stop-color="#9C704B"/>
<stop offset="0.843" stop-color="#B3885D"/>
<stop offset="1" stop-color="#C3996B"/>
</linearGradient>
<linearGradient id="paint2_linear_737_24210" x1="4.45232" y1="5.47358" x2="14.8562" y2="15.8774" gradientUnits="userSpaceOnUse">
<stop stop-color="#C3996B"/>
<stop offset="0.363" stop-color="#B1855C"/>
<stop offset="1" stop-color="#8B5F3D"/>
</linearGradient>
<linearGradient id="paint3_linear_737_24210" x1="28.854" y1="20.9131" x2="6.97046" y2="16.6795" gradientUnits="userSpaceOnUse">
<stop stop-color="#C3996B"/>
<stop offset="0.157" stop-color="#B3885D"/>
<stop offset="0.46" stop-color="#9C704B"/>
<stop offset="0.747" stop-color="#906340"/>
<stop offset="1" stop-color="#8B5F3D"/>
</linearGradient>
<linearGradient id="paint4_linear_737_24210" x1="5.21875" y1="13.1501" x2="9.77043" y2="13.1501" gradientUnits="userSpaceOnUse">
<stop stop-color="#909090"/>
<stop offset="1" stop-color="#B3B3B3"/>
</linearGradient>
<linearGradient id="paint5_linear_737_24210" x1="8.17901" y1="16.7283" x2="3.25037" y2="16.4742" gradientUnits="userSpaceOnUse">
<stop stop-color="#C3996B"/>
<stop offset="0.157" stop-color="#B3885D"/>
<stop offset="0.46" stop-color="#9C704B"/>
<stop offset="0.747" stop-color="#906340"/>
<stop offset="1" stop-color="#8B5F3D"/>
</linearGradient>
<linearGradient id="paint6_linear_737_24210" x1="22.892" y1="23.5672" x2="22.892" y2="18.558" gradientUnits="userSpaceOnUse">
<stop stop-color="#8B5F3D"/>
<stop offset="0.253" stop-color="#906340"/>
<stop offset="0.54" stop-color="#9C704B"/>
<stop offset="0.843" stop-color="#B3885D"/>
<stop offset="1" stop-color="#C3996B"/>
</linearGradient>
</defs>
</svg>
