<svg width="52" height="52" viewBox="0 0 52 52" fill="none" xmlns="http://www.w3.org/2000/svg">
<path d="M9.94674 18.6506L7.42578 12.6519L25.4095 11.3789L27.8711 16.8025L9.94674 18.6506Z" fill="#C2976A"/>
<path d="M42.8101 18.8841L46.3575 13.2598L31.8901 11.707L27.832 16.802L42.8101 18.8841Z" fill="url(#paint0_linear_737_24635)"/>
<path d="M10.0742 18.626V37.8462L27.8405 33.7809V16.8008L10.0742 18.626Z" fill="url(#paint1_linear_737_24635)"/>
<path d="M27.8398 16.8008V33.9254L40.3874 35.4781L42.8668 18.8381L27.8398 16.8008Z" fill="#8A603C"/>
<path d="M25.6719 15.975V20.0538L39.065 22.2618V21.3674L40.6156 21.4901V17.4435L27.4045 15.7129L25.6719 15.975Z" fill="#5A5A5D"/>
<path d="M39.8324 17.6075L27.5719 15.9727L26.4258 16.0819L38.1674 17.7594L38.1622 19.6823L39.8199 19.4504L39.8324 17.6075Z" fill="url(#paint2_linear_737_24635)"/>
<path d="M21.0234 16.4116V20.4894L34.4155 22.6984V21.8029L35.9651 21.9256V17.879L22.7561 16.1484L21.0234 16.4116Z" fill="#909090"/>
<path d="M35.1819 18.0431L22.9234 16.4082L21.7773 16.5174L33.5189 18.1949L33.5127 20.1179L35.1715 19.886L35.1819 18.0431Z" fill="url(#paint3_linear_737_24635)"/>
<path d="M16.3711 16.8491V20.9279L29.7642 23.1359V22.2404L31.3138 22.3631V18.3165L18.1048 16.5859L16.3711 16.8491Z" fill="#5A5A5D"/>
<path d="M30.5306 18.4786L18.2711 16.8438L17.125 16.953L28.8676 18.6305L28.8614 20.5545L30.5192 20.3215L30.5306 18.4786Z" fill="url(#paint4_linear_737_24635)"/>
<path d="M11.7227 17.2827V21.3615L25.1168 23.5694V22.674L26.6675 22.7978V18.7501L13.4574 17.0195L11.7227 17.2827Z" fill="#909090"/>
<path d="M25.8822 18.9152L13.6226 17.2793L12.4766 17.3885L24.2171 19.066L24.213 20.989L25.8707 20.7571L25.8822 18.9152Z" fill="url(#paint5_linear_737_24635)"/>
<path d="M23.2136 40.7661V20.5454L10.0742 18.6484V37.9436L23.2136 40.7661Z" fill="#5F3C19"/>
<path d="M23.2654 20.5527L9.94719 18.6484L2.50391 23.8453L16.2049 26.6606L23.2654 20.5527Z" fill="#8A603C"/>
<path d="M23.2109 20.5531V40.7665L42.92 37.9439V18.8828L23.2109 20.5531Z" fill="url(#paint6_linear_737_24635)"/>
<path d="M29.0054 27.5096L23.2656 20.5531L42.853 18.8828L49.3031 25.0708L29.0054 27.5096Z" fill="url(#paint7_linear_737_24635)"/>
<defs>
<linearGradient id="paint0_linear_737_24635" x1="27.832" y1="15.2961" x2="46.3575" y2="15.2961" gradientUnits="userSpaceOnUse">
<stop stop-color="#8A603C"/>
<stop offset="0.048" stop-color="#916642"/>
<stop offset="0.235" stop-color="#A57A53"/>
<stop offset="0.439" stop-color="#B58A60"/>
<stop offset="0.673" stop-color="#BE9468"/>
<stop offset="1" stop-color="#C2986B"/>
</linearGradient>
<linearGradient id="paint1_linear_737_24635" x1="18.9579" y1="37.8462" x2="18.9579" y2="16.8008" gradientUnits="userSpaceOnUse">
<stop stop-color="#C2986B"/>
<stop offset="0.327" stop-color="#BE9468"/>
<stop offset="0.561" stop-color="#B58A60"/>
<stop offset="0.765" stop-color="#A57A53"/>
<stop offset="0.952" stop-color="#916642"/>
<stop offset="1" stop-color="#8A603C"/>
</linearGradient>
<linearGradient id="paint2_linear_737_24635" x1="39.8324" y1="17.828" x2="26.4258" y2="17.828" gradientUnits="userSpaceOnUse">
<stop stop-color="#E3E3E3"/>
<stop offset="1" stop-color="#A3A3A3"/>
</linearGradient>
<linearGradient id="paint3_linear_737_24635" x1="35.1819" y1="18.2636" x2="21.7773" y2="18.2636" gradientUnits="userSpaceOnUse">
<stop stop-color="#E3E3E3"/>
<stop offset="1" stop-color="#A3A3A3"/>
</linearGradient>
<linearGradient id="paint4_linear_737_24635" x1="30.5306" y1="18.6991" x2="17.125" y2="18.6991" gradientUnits="userSpaceOnUse">
<stop stop-color="#E3E3E3"/>
<stop offset="1" stop-color="#A3A3A3"/>
</linearGradient>
<linearGradient id="paint5_linear_737_24635" x1="25.8822" y1="19.1336" x2="12.4766" y2="19.1336" gradientUnits="userSpaceOnUse">
<stop stop-color="#E3E3E3"/>
<stop offset="1" stop-color="#A3A3A3"/>
</linearGradient>
<linearGradient id="paint6_linear_737_24635" x1="33.066" y1="40.7665" x2="33.066" y2="18.8839" gradientUnits="userSpaceOnUse">
<stop stop-color="#8A603C"/>
<stop offset="0.048" stop-color="#916642"/>
<stop offset="0.235" stop-color="#A57A53"/>
<stop offset="0.439" stop-color="#B58A60"/>
<stop offset="0.673" stop-color="#BE9468"/>
<stop offset="1" stop-color="#C2986B"/>
</linearGradient>
<linearGradient id="paint7_linear_737_24635" x1="23.2656" y1="23.1967" x2="49.3031" y2="23.1967" gradientUnits="userSpaceOnUse">
<stop stop-color="#8A603C"/>
<stop offset="0.048" stop-color="#916642"/>
<stop offset="0.235" stop-color="#A57A53"/>
<stop offset="0.439" stop-color="#B58A60"/>
<stop offset="0.673" stop-color="#BE9468"/>
<stop offset="1" stop-color="#C2986B"/>
</linearGradient>
</defs>
</svg>
