<svg width="30" height="37" viewBox="0 0 30 37" fill="none" xmlns="http://www.w3.org/2000/svg">
<path d="M27.25 1H2.75C1.7835 1 1 1.7835 1 2.75V34.25C1 35.2165 1.7835 36 2.75 36H27.25C28.2165 36 29 35.2165 29 34.25V2.75C29 1.7835 28.2165 1 27.25 1Z" stroke="white" stroke-width="2"/>
<path d="M1 11.0625H29" stroke="white" stroke-width="2" stroke-linecap="round" stroke-linejoin="round"/>
<path d="M18.5 8C19.4665 8 20.25 7.2165 20.25 6.25C20.25 5.2835 19.4665 4.5 18.5 4.5C17.5335 4.5 16.75 5.2835 16.75 6.25C16.75 7.2165 17.5335 8 18.5 8Z" fill="white"/>
<path d="M23.75 8C24.7165 8 25.5 7.2165 25.5 6.25C25.5 5.2835 24.7165 4.5 23.75 4.5C22.7835 4.5 22 5.2835 22 6.25C22 7.2165 22.7835 8 23.75 8Z" fill="white"/>
<path d="M15 29.875C18.3827 29.875 21.125 27.1327 21.125 23.75C21.125 20.3673 18.3827 17.625 15 17.625C11.6173 17.625 8.875 20.3673 8.875 23.75C8.875 27.1327 11.6173 29.875 15 29.875Z" stroke="white" stroke-width="2"/>
</svg>
