<svg width="20" height="20" viewBox="0 0 20 20" fill="none" xmlns="http://www.w3.org/2000/svg">
<path fill-rule="evenodd" clip-rule="evenodd" d="M18.4664 5.98618L16.0272 2.68138C15.5559 2.04284 14.8094 1.66602 14.0157 1.66602H5.98418C5.19054 1.66602 4.44404 2.04284 3.97274 2.68139L1.53349 5.98618C0.872046 6.88233 0.883227 8.10796 1.56091 8.99189L8.01594 17.4115C9.01662 18.7167 10.9833 18.7167 11.984 17.4115L18.439 8.99189C19.1167 8.10796 19.1279 6.88233 18.4664 5.98618ZM3.10319 6.66602L5.3137 3.67114C5.4708 3.45829 5.71963 3.33268 5.98418 3.33268H14.0157C14.2803 3.33268 14.5291 3.45829 14.6862 3.67114L16.8967 6.66602H3.10319ZM3.15563 8.33268L9.33862 16.3975C9.67218 16.8325 10.3277 16.8325 10.6613 16.3974L16.8443 8.33268H3.15563Z" fill="#112A35"/>
</svg>
