<svg width="22" height="22" viewBox="0 0 22 22" fill="none" xmlns="http://www.w3.org/2000/svg">
<path d="M9.00842 5.49805H12.5544L12.579 5.52259V10.1361L12.6035 10.3815L12.6526 10.5287L12.7385 10.676L12.8367 10.7864L12.9962 10.8968L13.1066 10.9459L13.2784 10.9827H13.4256L13.5974 10.9459L13.7692 10.86L13.9041 10.7496L14.0023 10.6146L14.1986 10.2711L14.3704 9.97659L14.5299 9.69438L14.6526 9.48579L14.8244 9.19131L14.898 9.05634L14.9348 9.04407L15.0821 9.30174L15.2538 9.59622L15.352 9.768L15.5238 10.0625L15.6833 10.3447L15.8551 10.6392L15.941 10.7496L16.0269 10.8355L16.1986 10.9336L16.3704 10.9827H16.5913L16.7753 10.9336L16.9103 10.86L17.0453 10.7496L17.1557 10.6024L17.2048 10.5042L17.2538 10.2956L17.2661 5.52259L17.2907 5.49805H20.8367L21.0698 5.52259L21.2907 5.59621L21.487 5.70664L21.6465 5.84161L21.7569 5.96431L21.8428 6.09928L21.9287 6.27106L21.9778 6.45511L21.9901 6.52873L22.0023 6.8232V14.8723L21.9901 15.4613L21.9533 15.6576L21.8796 15.8416L21.806 15.9766L21.7079 16.0993L21.6097 16.2097L21.4256 16.3447L21.2416 16.4306L21.0821 16.4797L20.9103 16.5042H8.92253L8.75075 16.4797L8.5667 16.4183L8.38265 16.3202L8.25995 16.222L8.10044 16.0625L7.99001 15.8907L7.92866 15.768L7.87958 15.6208L7.85504 15.4735L7.84277 15.3263V6.63916L7.86731 6.44284L7.92866 6.23425L8.02682 6.0502L8.14952 5.89069L8.27222 5.76799L8.43173 5.65756L8.60351 5.57167L8.77529 5.52259L9.00842 5.49805ZM16.8735 14.1484L16.7385 14.1729L16.6281 14.2465L16.5545 14.3324L16.5054 14.4551V14.6269L16.5545 14.7496L16.6404 14.8478L16.7631 14.9091L16.8244 14.9214H17.7324L17.8428 14.8846L17.941 14.8232V14.7987H17.9655L18.0269 14.7005L18.0514 14.6269V14.4551L17.99 14.3079L17.9042 14.222L17.806 14.1729L17.671 14.1484H16.8735ZM19.217 14.1484L19.0943 14.1729L18.9839 14.2465L18.9103 14.3324L18.8612 14.4551V14.6269L18.9103 14.7496L18.9839 14.8355L19.0821 14.8969L19.168 14.9214H20.0882L20.1986 14.8846L20.3091 14.811L20.3827 14.7005L20.4072 14.6269V14.4551L20.3582 14.3324L20.26 14.222L20.1618 14.1729L20.0269 14.1484H19.217Z" fill="#204A60"/>
<path d="M0.380369 0H2.85891L3.16566 0.02454L3.39879 0.0736199L3.63192 0.15951L3.82823 0.25767L4.00001 0.3681L4.13498 0.478529L4.25768 0.588959L4.39265 0.736199L4.53989 0.944789L4.66259 1.17792L4.76075 1.46013L4.80983 1.73007L4.84664 2.34357L4.98161 5.34971L5.41106 14.8099L5.50922 16.908L5.54603 17.0553L5.60738 17.1534L5.681 17.2148L5.81597 17.2639L21.5706 17.2761L21.7301 17.3007L21.8528 17.3743L21.9387 17.4725L21.9878 17.5829V17.7792L21.9142 17.9264L21.8038 18.0246L21.7056 18.0614L21.632 18.0737H5.71781L5.54603 18.0491L5.32517 17.9755L5.1902 17.9019L5.04296 17.7915L4.90799 17.6565L4.79756 17.497L4.71167 17.3252L4.66259 17.1657L4.63805 17.0307L4.60124 16.3436L4.3313 10.3927L4.11044 5.54603L4.02455 3.65646L3.95093 2.02455L3.92639 1.75461L3.88958 1.60737L3.80369 1.41105L3.69326 1.23927L3.58283 1.11657L3.4356 1.00614L3.28836 0.920249L3.07977 0.846629L2.9448 0.822089L2.77302 0.809819L0.31902 0.797549L0.18405 0.748469L0.0736199 0.650309L0 0.503069V0.30675L0.0490799 0.18405L0.1227 0.0981599L0.29448 0.01227L0.380369 0Z" fill="#204A60"/>
<path d="M13.3634 5.49805H16.48L16.5045 5.52259V10.1729H16.4554L16.3696 10.0011L16.1978 9.70665L16.0015 9.36309L15.8788 9.1545L15.6824 8.81094L15.5475 8.57781L15.3634 8.25879L15.253 8.07474L15.1548 7.96431L15.0567 7.91523L15.0199 7.90296H14.8235L14.7131 7.95204L14.6149 8.03793L14.4922 8.23425L14.3205 8.541L14.1855 8.77413L13.8174 9.41217L13.6456 9.70665L13.4616 10.0257L13.3757 10.1852H13.3511L13.3389 10.1361V5.52259L13.3634 5.49805Z" fill="#204A60"/>
<path d="M9.37652 18.8457L9.63419 18.858L9.83051 18.8948L10.0636 18.9807L10.2722 19.0911L10.4195 19.2015L10.5422 19.312L10.6281 19.3979L10.763 19.5819L10.8735 19.7905L10.9471 19.9991L10.9962 20.2322V20.6126L10.9471 20.858L10.8735 21.0666L10.7753 21.2506L10.6526 21.4224L10.5422 21.5451L10.4072 21.6678L10.2232 21.7905L9.99002 21.9009L9.73235 21.9745L9.56057 21.9991H9.25382L9.04523 21.9623L8.82437 21.8887L8.62805 21.7905L8.48081 21.6923L8.3213 21.5574L8.18633 21.4101L8.10044 21.2874L8.00228 21.1157L7.92866 20.9439L7.86731 20.7107L7.84277 20.5144V20.3426L7.87958 20.085L7.94093 19.8764L8.01455 19.7046L8.13725 19.5083L8.23541 19.3856L8.3213 19.2874L8.45627 19.177L8.61578 19.0666L8.79983 18.9684L9.02069 18.8948L9.21701 18.858L9.37652 18.8457Z" fill="#204A60"/>
<path d="M18.0113 18.8457L18.269 18.858L18.4653 18.8948L18.6984 18.9807L18.907 19.0911L19.0542 19.2015L19.1769 19.312L19.2628 19.3979L19.3978 19.5819L19.5082 19.7905L19.5818 19.9991L19.6309 20.2322V20.6126L19.5818 20.858L19.5082 21.0543L19.4101 21.2506L19.2874 21.4224L19.1769 21.5451L19.042 21.6678L18.8579 21.7905L18.6248 21.9009L18.3671 21.9745L18.1953 21.9991H17.8886L17.68 21.9623L17.4591 21.8887L17.2628 21.7905L17.1156 21.6923L16.9561 21.5574L16.8211 21.4101L16.7352 21.2874L16.637 21.1157L16.5634 20.9439L16.5021 20.7107L16.4775 20.5144V20.3426L16.5143 20.085L16.5757 19.8764L16.6493 19.7046L16.772 19.5083L16.8702 19.3856L16.9561 19.2874L17.091 19.177L17.2505 19.0666L17.4346 18.9684L17.6555 18.8948L17.8518 18.858L18.0113 18.8457Z" fill="#204A60"/>
</svg>
