<svg width="17" height="23" viewBox="0 0 17 23" fill="none" xmlns="http://www.w3.org/2000/svg">
<path d="M7.00242 9.23242H9.22967L9.25275 9.26704V12.1867L9.27583 12.3713L9.32199 12.4983L9.39123 12.6137L9.49509 12.7291L9.61049 12.8099L9.76051 12.8791L9.93362 12.9137H10.049L10.2106 12.8791L10.3952 12.7868L10.8914 12.4406L11.0761 12.3136L11.1684 12.3598L11.2954 12.4521L11.7916 12.7983L11.9185 12.8676L12.0455 12.9022L12.1147 12.9137H12.2416L12.4032 12.8791L12.5417 12.8214L12.6571 12.7406L12.7379 12.6714L12.8302 12.5444L12.8879 12.3944L12.911 12.2906L12.9225 9.2555L12.9456 9.23242H15.1613L15.3459 9.2555L15.4844 9.3132L15.6114 9.39398L15.7498 9.53247L15.8422 9.69403L15.8768 9.79789L15.8883 9.86713L15.8999 10.3518L15.8883 17.1028L15.8537 17.2413L15.7614 17.4259L15.6575 17.5413L15.5767 17.6106L15.3921 17.7029L15.219 17.7375H8.76806L8.73344 17.6452L8.64112 17.3336L8.52572 17.022L8.38724 16.722L8.23722 16.4566L8.11027 16.2604L7.99487 16.0988L7.90255 15.9834L7.76407 15.8218L7.62559 15.6718L7.53327 15.5795L7.44095 15.4987L7.32554 15.3949L7.12936 15.2448L6.8524 15.0602L6.63314 14.9333L6.41387 14.8179L6.29847 14.7602L6.27539 14.7371V9.93637L6.29847 9.78635L6.35617 9.63633L6.44849 9.50939L6.52927 9.41706L6.6793 9.3132L6.82932 9.2555L7.00242 9.23242Z" fill="#204A60"/>
<path d="M4.46933 15.1406H4.76938L5.12712 15.1752L5.39254 15.2214L5.69259 15.3022L6.02725 15.4291L6.24651 15.533L6.46578 15.6599L6.6735 15.7984L6.82352 15.9138L6.99662 16.0638L7.27359 16.3408L7.37745 16.4677L7.53901 16.687L7.66595 16.8947L7.80443 17.1602L7.89675 17.3679L8.01216 17.7141L8.0814 18.0141L8.11602 18.2334L8.1391 18.6027L8.12756 18.972L8.09294 19.2258L8.03524 19.5143L7.95446 19.7913L7.85059 20.0683L7.75827 20.2529L7.65441 20.4491L7.51593 20.6568L7.40053 20.8184L7.27359 20.9684L7.16973 21.0838L6.98508 21.2684L6.7312 21.4762L6.48886 21.6377L6.29267 21.7531L6.10803 21.8454L5.83107 21.9608L5.54256 22.0532L5.21944 22.1224L4.96556 22.157L4.82708 22.1686H4.40009L4.06543 22.134L3.78846 22.0763L3.54612 22.007L3.31532 21.9262L3.08451 21.8224L2.84217 21.6954L2.61137 21.5454L2.47289 21.4415L2.34595 21.3377L2.20746 21.2107L2.13822 21.153L2.05744 21.0607L1.96512 20.9684L1.83818 20.8068L1.72278 20.6568L1.5843 20.4376L1.45735 20.2067L1.31887 19.8836L1.22655 19.5951L1.15731 19.2835L1.12269 19.0527L1.09961 18.7296L1.11115 18.3719L1.15731 18.0257L1.22655 17.7372L1.29579 17.5064L1.38811 17.264L1.52659 16.9755L1.68816 16.7101L1.82664 16.5254L1.94204 16.3754L2.08052 16.2254L2.28824 16.0177L2.41519 15.9138L2.59983 15.7753L2.79601 15.6484L3.00373 15.533L3.29224 15.3945L3.54612 15.3022L3.8577 15.2214L4.11159 15.1752L4.46933 15.1406ZM4.55011 17.3679L4.36547 17.391L4.19237 17.4371L4.01927 17.5179L3.86924 17.6102L3.7423 17.7141V17.7372L3.69614 17.7602L3.59228 17.8872L3.5115 18.0026L3.41918 18.1988L3.36148 18.3834L3.3384 18.545V18.7873L3.38456 19.0181L3.4538 19.2028L3.53458 19.3528L3.63844 19.4913L3.70768 19.572L3.83462 19.6759L3.95003 19.7567L4.12313 19.849L4.29623 19.9067L4.49241 19.9413H4.75784L4.98864 19.8952L5.16174 19.8259L5.31176 19.7451L5.45024 19.6413L5.58873 19.5143L5.71567 19.3412L5.80799 19.1681L5.86569 18.995L5.90031 18.8104V18.5103L5.86569 18.3257L5.78491 18.1064L5.68105 17.9218L5.57719 17.7949L5.45024 17.6679L5.28868 17.5525L5.10404 17.4602L4.93094 17.4025L4.68859 17.3679H4.55011Z" fill="#204A60"/>
<path d="M0.727029 0H3.26586L3.64669 0.0230803L3.84287 0.0577007L4.10829 0.138482L4.31601 0.230803L4.44296 0.300044L4.60452 0.403905L4.76608 0.530847L4.90456 0.657788L4.99688 0.750109L5.12382 0.911671L5.26231 1.11939L5.35463 1.30404L5.42387 1.4656L5.48157 1.6387L5.53927 1.9272L5.55081 2.04261L5.56235 2.29649V14.506L5.50465 14.5175L5.15844 14.4598L4.90456 14.4367H4.36217L4.21215 14.4483H4.07367L4.06213 14.4367L4.05059 2.13493L4.01597 1.97336L3.92365 1.78872L3.81979 1.67332L3.70439 1.59254L3.5659 1.53484L3.46204 1.51176L3.34664 1.50022L0.634708 1.48868L0.473146 1.45406L0.311584 1.37328L0.173102 1.24634L0.0923212 1.11939L0.0346204 0.980912L0.0115401 0.888591L0 0.715489L0.0230803 0.553927L0.080781 0.392365L0.161562 0.265423L0.230803 0.184642L0.380825 0.080781L0.530847 0.0230803L0.727029 0Z" fill="#204A60"/>
<path d="M8.88528 18.4648L16.3748 18.4764L16.5133 18.511L16.6518 18.5802L16.7557 18.661L16.8364 18.7418L16.9403 18.9034L16.9865 19.0419L16.998 19.1111V21.5576L16.9749 21.673L16.9172 21.8115L16.8249 21.9384L16.7441 22.0192L16.6172 22.0884L16.4672 22.1462L16.3518 22.1692H16.1556L15.994 22.1346L15.8094 22.0423L15.717 21.9615L15.6247 21.8576L15.5555 21.7192L15.5209 21.5922L15.5093 21.4307L15.4978 19.9651L8.66602 19.9535L8.6891 19.8497L8.76988 19.5265L8.81604 19.2611L8.85066 18.9264L8.8622 18.4764L8.88528 18.4648Z" fill="#204A60"/>
<path d="M9.99867 9.23242H12.1913L12.2144 9.26704V12.1636L12.2028 12.1982L12.1567 12.1752L11.949 12.0251L11.7643 11.8982L11.5335 11.7366L11.3142 11.5866L11.1988 11.5289L11.1527 11.5174H11.0257L10.9103 11.5635L10.6565 11.7366L10.4257 11.8982L10.241 12.0251L10.0794 12.1405L10.0217 12.1867H9.98713L9.97559 12.1636V9.2555L9.99867 9.23242Z" fill="#204A60"/>
<path d="M4.61092 18.0957L4.76095 18.1072L4.91097 18.1649L5.00329 18.2342L5.09561 18.3265L5.16485 18.465L5.18793 18.5458L5.19947 18.6612L5.17639 18.8227L5.13023 18.9266L5.06099 19.0305L4.98021 19.1112L4.81865 19.192L4.71479 19.2151H4.54168L4.39166 19.1689L4.26472 19.0882L4.1724 18.9843L4.10316 18.8458L4.08008 18.765V18.5573L4.12624 18.4188L4.18394 18.315L4.2878 18.2111L4.42628 18.1303L4.50706 18.1072L4.61092 18.0957Z" fill="#204A60"/>
</svg>
