<svg width="19" height="19" viewBox="0 0 19 19" fill="none" xmlns="http://www.w3.org/2000/svg">
<path d="M14.4912 0H15.4189L15.4561 0.0185547L15.7808 0.0742188L16.0776 0.148438L16.2261 0.204102L16.3096 0.269043L16.3652 0.361816L16.3838 0.426758V0.500977L16.356 0.584473L16.291 0.686523L15.9756 1.00195H15.957V1.02051H15.9385V1.03906H15.9199L15.9014 1.07617H15.8828L15.8643 1.11328H15.8457L15.8271 1.15039H15.8086V1.16895H15.79V1.1875H15.7715V1.20605H15.7529V1.22461H15.7344V1.24316H15.7158V1.26172H15.6973V1.28027H15.6787V1.29883H15.6602V1.31738H15.6416V1.33594H15.623V1.35449H15.6045V1.37305H15.5859V1.3916H15.5674V1.41016H15.5488V1.42871L15.4746 1.49365L14.0088 2.95947L14.0181 3.00586L14.1479 3.22852L14.25 3.40479L14.3057 3.50684L14.4448 3.75732L14.6675 4.14697L14.7231 4.23975L14.7695 4.28613L15.02 4.42529L15.2148 4.53662L15.4468 4.6665L15.6416 4.77783L15.8735 4.90771L16.0127 4.99121H16.0405L16.0684 4.9541H16.0869L16.1055 4.91699L16.1333 4.88916H16.1519L16.1704 4.85205H16.189L16.2075 4.81494L16.3188 4.70361H16.3374L16.356 4.6665L16.4302 4.59229H16.4487L16.4673 4.55518L18.332 2.69043L18.397 2.64404L18.4805 2.61621H18.5732L18.6753 2.65332L18.7588 2.72754L18.8052 2.82031L18.8979 3.19141L18.9536 3.49756L18.9814 3.72949L19 3.73877V4.37891L18.9814 4.38818L18.9443 4.68506L18.8794 5.01904L18.8052 5.28809L18.7124 5.54785L18.5918 5.82617L18.4712 6.05811L18.3599 6.24365L18.2856 6.35498L18.165 6.52197L18.0444 6.67041L17.9424 6.79102L17.8589 6.87451L17.7939 6.94873L17.6548 7.07861L17.562 7.16211L17.4321 7.26416L17.3115 7.35693L17.1724 7.44971L16.9961 7.56104L16.792 7.67236L16.5415 7.79297L16.3281 7.87646L16.0776 7.95996L15.7808 8.03418L15.4468 8.08984L15.1592 8.11768H14.6675L14.3984 8.08984L14.1201 8.04346L13.8511 7.97852L13.6841 7.93213L13.6377 7.94141L13.1738 8.40527L13.1646 8.42383H13.146V8.44238H13.1274V8.46094H13.1089L13.0903 8.49805L11.439 10.1494L11.3926 10.2051L11.3276 10.2607L11.2812 10.3164L11.2163 10.3721L11.1699 10.4277L11.105 10.4834L11.0586 10.5391L11.0029 10.5854L10.9473 10.6504L10.8916 10.6968L10.8267 10.771L8.66504 12.9326L8.61865 12.9883L8.55371 13.0439L8.48877 13.1182L6.80029 14.8066L6.79102 14.8252H6.77246V14.8438L6.72607 14.8809L6.67041 14.9458H6.65186L6.66113 15.0293L6.69824 15.2891L6.7168 15.5674V15.7344L6.69824 16.022L6.66113 16.2632L6.61475 16.4766L6.5498 16.6992L6.48486 16.8848L6.40137 17.0796L6.32715 17.228L6.2251 17.4136L6.11377 17.5806L6.01172 17.7197L5.92822 17.8218L5.82617 17.9424L5.62207 18.1465L5.54785 18.2114L5.39941 18.332L5.2417 18.4434L5.06543 18.5547L4.86133 18.666L4.70361 18.7402L4.49023 18.8237L4.32324 18.8794L4.03564 18.9536L3.82227 19H2.89453L2.51416 18.9165L2.26367 18.8423L2.00391 18.7402L1.77197 18.6289L1.54932 18.499L1.40088 18.397L1.28955 18.3135L1.16895 18.2114L1.07617 18.1279L1.00195 18.063L0.890625 17.9517L0.825684 17.8774L0.714355 17.7476L0.584473 17.5713L0.491699 17.4321L0.380371 17.2373L0.27832 17.0332L0.17627 16.7734L0.102051 16.5322L0.0649414 16.3838L0.00927734 16.0869L0 16.0591V15.252L0.0463867 15.02L0.111328 14.7417L0.213379 14.4355L0.31543 14.2036L0.408203 14.0181L0.538086 13.8047L0.640137 13.6655L0.723633 13.5542L0.825684 13.4336L0.937012 13.313L1.05762 13.1924L1.13184 13.1274L1.26172 13.0161L1.43799 12.8862L1.56787 12.8027L1.72559 12.71L1.92041 12.6079L2.16162 12.5059L2.41211 12.4224L2.62549 12.3667L2.82031 12.3296L3.14502 12.2925H3.55322L3.90576 12.3296L4.04492 12.3481L4.11914 12.2832L5.51074 10.8916H5.5293L5.53857 10.8638L5.59424 10.8174L5.6499 10.7524L5.71484 10.6968L5.76123 10.6411L5.82617 10.5854L5.87256 10.5298L5.9375 10.4741L5.98389 10.4185L6.04883 10.3628L6.09521 10.3071L6.16016 10.2515L6.20654 10.1958L6.27148 10.1401L6.31787 10.0845L6.39209 10.0195L11.0122 5.39941L11.0586 5.3623L11.0679 5.31592L10.9844 5.02832L10.9287 4.75928L10.8916 4.49951L10.873 4.29541V3.81299L10.9009 3.52539L10.9473 3.25635L11.0122 2.97803L11.0864 2.74609L11.1514 2.56055L11.2534 2.32861L11.374 2.0874L11.4854 1.90186L11.5596 1.79053L11.6616 1.64209L11.8843 1.36377H11.9028L11.9214 1.32666L12.0698 1.16895L12.1348 1.104L12.209 1.03906L12.311 0.946289L12.4038 0.87207L12.5244 0.779297L12.7378 0.630859L12.9419 0.510254L13.1553 0.398926L13.3315 0.31543L13.5449 0.231934L13.7676 0.157715L13.981 0.102051L14.2314 0.0463867L14.4727 0.00927734L14.4912 0ZM3.55322 14.1665L3.33984 14.2222L2.97803 14.3335L2.54199 14.4634L2.375 14.519L2.2915 14.5654L2.23584 14.6396L2.18945 14.7603L2.04102 15.2705L1.8833 15.8179L1.87402 15.8643V15.9385L1.90186 16.0127L1.95752 16.0869L2.02246 16.1611H2.04102L2.05957 16.1982H2.07812L2.0874 16.2261L2.16162 16.291L2.95947 17.0889L3.0708 17.1353H3.19141L3.51611 17.0425L3.72949 16.9775L4.10986 16.8662L4.32324 16.8013L4.41602 16.7456L4.4624 16.6899L4.51807 16.5415L4.69434 15.9292L4.82422 15.4746L4.8335 15.3911L4.79639 15.2705L4.68506 15.1406L3.77588 14.2314L3.66455 14.1758L3.62744 14.1665H3.55322Z" fill="#204A60"/>
</svg>
