<svg width="40" height="40" viewBox="0 0 40 40" fill="none" xmlns="http://www.w3.org/2000/svg">
<rect width="40" height="40" rx="20" fill="#ADAEB1"/>
<path d="M23.1691 18.6923V14.7692C23.1691 13.9022 22.8353 13.0706 22.241 12.4575C21.6468 11.8444 20.8408 11.5 20.0004 11.5C19.16 11.5 18.354 11.8444 17.7597 12.4575C17.1655 13.0706 16.8316 13.9022 16.8316 14.7692V18.6923M26.4274 16.9548L27.4947 27.4164C27.5538 27.9961 27.1144 28.5 26.5491 28.5H13.4516C13.3183 28.5001 13.1864 28.4714 13.0646 28.4155C12.9427 28.3596 12.8337 28.2779 12.7444 28.1758C12.6551 28.0736 12.5877 27.9531 12.5465 27.8223C12.5053 27.6915 12.4913 27.5532 12.5052 27.4164L13.5733 16.9548C13.598 16.7138 13.7082 16.4908 13.8828 16.3287C14.0574 16.1666 14.284 16.0769 14.5189 16.0769H25.4819C25.9686 16.0769 26.3767 16.4562 26.4274 16.9548ZM17.1485 18.6923C17.1485 18.779 17.1151 18.8622 17.0557 18.9235C16.9963 18.9848 16.9157 19.0192 16.8316 19.0192C16.7476 19.0192 16.667 18.9848 16.6076 18.9235C16.5481 18.8622 16.5148 18.779 16.5148 18.6923C16.5148 18.6056 16.5481 18.5224 16.6076 18.4611C16.667 18.3998 16.7476 18.3654 16.8316 18.3654C16.9157 18.3654 16.9963 18.3998 17.0557 18.4611C17.1151 18.5224 17.1485 18.6056 17.1485 18.6923ZM23.486 18.6923C23.486 18.779 23.4526 18.8622 23.3932 18.9235C23.3338 18.9848 23.2532 19.0192 23.1691 19.0192C23.0851 19.0192 23.0045 18.9848 22.945 18.9235C22.8856 18.8622 22.8522 18.779 22.8522 18.6923C22.8522 18.6056 22.8856 18.5224 22.945 18.4611C23.0045 18.3998 23.0851 18.3654 23.1691 18.3654C23.2532 18.3654 23.3338 18.3998 23.3932 18.4611C23.4526 18.5224 23.486 18.6056 23.486 18.6923Z" stroke="#204A60" stroke-width="1.3" stroke-linecap="round" stroke-linejoin="round"/>
</svg>
