<svg width="40" height="40" viewBox="0 0 40 40" fill="none" xmlns="http://www.w3.org/2000/svg">
<rect width="40" height="40" rx="20" fill="#DA6635"/>
<path d="M22.5 18.5C21.7044 18.5 20.9413 18.1839 20.3787 17.6213C19.8161 17.0587 19.5 16.2956 19.5 15.5V11.5H15.5C14.9696 11.5 14.4609 11.7107 14.0858 12.0858C13.7107 12.4609 13.5 12.9696 13.5 13.5V26.5C13.5 27.0304 13.7107 27.5391 14.0858 27.9142C14.4609 28.2893 14.9696 28.5 15.5 28.5H24.5C25.0304 28.5 25.5391 28.2893 25.9142 27.9142C26.2893 27.5391 26.5 27.0304 26.5 26.5V18.5H22.5ZM20.5 15.5C20.5 16.0304 20.7107 16.5391 21.0858 16.9142C21.4609 17.2893 21.9696 17.5 22.5 17.5H26.09L20.5 11.91V15.5ZM15.5 10.5H20.5L27.5 17.5V26.5C27.5 27.2956 27.1839 28.0587 26.6213 28.6213C26.0587 29.1839 25.2956 29.5 24.5 29.5H15.5C14.7044 29.5 13.9413 29.1839 13.3787 28.6213C12.8161 28.0587 12.5 27.2956 12.5 26.5V13.5C12.5 12.7044 12.8161 11.9413 13.3787 11.3787C13.9413 10.8161 14.7044 10.5 15.5 10.5Z" fill="white"/>
</svg>
