<svg width="40" height="40" viewBox="0 0 40 40" fill="none" xmlns="http://www.w3.org/2000/svg">
<rect width="40" height="40" rx="20" fill="#204A60"/>
<path d="M27.1401 18.1535C27.1401 17.9699 27.0673 17.7938 26.9378 17.6639C26.8082 17.5341 26.6324 17.4611 26.4492 17.4611C26.2659 17.4611 26.0901 17.5341 25.9606 17.6639C25.831 17.7938 25.7582 17.9699 25.7582 18.1535H27.1401ZM14.2418 18.1535C14.2418 17.9699 14.169 17.7938 14.0394 17.6639C13.9099 17.5341 13.7341 17.4611 13.5508 17.4611C13.3676 17.4611 13.1918 17.5341 13.0622 17.6639C12.9327 17.7938 12.8599 17.9699 12.8599 18.1535H14.2418ZM27.8035 20.4889C27.8667 20.557 27.943 20.6115 28.0278 20.6494C28.1126 20.6872 28.2041 20.7075 28.2968 20.7092C28.3896 20.7108 28.4818 20.6937 28.5678 20.6589C28.6538 20.6241 28.732 20.5723 28.7976 20.5065C28.8632 20.4408 28.915 20.3625 28.9497 20.2763C28.9845 20.19 29.0015 20.0977 28.9999 20.0048C28.9983 19.9118 28.9779 19.8201 28.9402 19.7352C28.9024 19.6503 28.848 19.5738 28.7801 19.5104L27.8035 20.4889ZM20 11.6917L20.4883 11.2025C20.3587 11.0728 20.1831 11 20 11C19.8169 11 19.6413 11.0728 19.5117 11.2025L20 11.6917ZM11.2199 19.5104C11.152 19.5738 11.0976 19.6503 11.0598 19.7352C11.0221 19.8201 11.0017 19.9118 11.0001 20.0048C10.9985 20.0977 11.0155 20.19 11.0503 20.2763C11.085 20.3625 11.1368 20.4408 11.2024 20.5065C11.268 20.5723 11.3462 20.6241 11.4322 20.6589C11.5182 20.6937 11.6104 20.7108 11.7032 20.7092C11.796 20.7075 11.8874 20.6872 11.9722 20.6494C12.057 20.6115 12.1333 20.557 12.1965 20.4889L11.2199 19.5104ZM15.3935 29H24.6065V27.6153H15.3935V29ZM27.1401 26.4615V18.1535H25.7582V26.4615H27.1401ZM14.2418 26.4615V18.1535H12.8599V26.4615H14.2418ZM28.7801 19.5104L20.4883 11.2025L19.5117 12.181L27.8035 20.4889L28.7801 19.5104ZM19.5117 11.2025L11.2199 19.5104L12.1965 20.4889L20.4883 12.181L19.5117 11.2025ZM24.6065 29C25.2785 29 25.9229 28.7325 26.3981 28.2565C26.8732 27.7804 27.1401 27.1347 27.1401 26.4615H25.7582C25.7582 27.0984 25.2422 27.6153 24.6065 27.6153V29ZM15.3935 27.6153C14.7578 27.6153 14.2418 27.0984 14.2418 26.4615H12.8599C12.8599 27.1347 13.1268 27.7804 13.6019 28.2565C14.0771 28.7325 14.7215 29 15.3935 29V27.6153Z" fill="white"/>
</svg>
